<svg width="919" height="519" viewBox="0 0 919 519" fill="none" xmlns="http://www.w3.org/2000/svg">
<g clip-path="url(#clip0_103_315)">
<path d="M856.044 90.157H842.085C840.975 90.1588 839.893 89.8155 838.987 89.1746C838.081 88.5337 837.397 87.627 837.03 86.58C835.961 83.5125 834.697 80.5164 833.246 77.61C832.745 76.6045 832.573 75.4666 832.756 74.358C832.938 73.2495 833.466 72.2267 834.263 71.435L844.184 61.514C845.192 60.505 845.758 59.1372 845.758 57.711C845.758 56.2848 845.192 54.917 844.184 53.908L822.75 32.484C821.741 31.4759 820.374 30.9096 818.948 30.9096C817.521 30.9096 816.154 31.4759 815.145 32.484L805.045 42.584C804.258 43.3731 803.245 43.897 802.147 44.0826C801.048 44.2681 799.919 44.106 798.917 43.619C796.066 42.2267 793.129 41.0163 790.125 39.995C789.066 39.6344 788.148 38.951 787.497 38.0411C786.847 37.1311 786.499 36.0403 786.501 34.922V20.614C786.501 19.9081 786.362 19.2091 786.092 18.5569C785.822 17.9048 785.426 17.3122 784.927 16.813C784.428 16.3139 783.835 15.918 783.183 15.6479C782.531 15.3778 781.832 15.2389 781.126 15.239H750.826C750.12 15.2389 749.421 15.3778 748.769 15.6479C748.117 15.918 747.524 16.3139 747.025 16.813C746.526 17.3122 746.13 17.9048 745.86 18.5569C745.59 19.2091 745.451 19.9081 745.451 20.614V34.922C745.453 36.0403 745.105 37.1311 744.454 38.0411C743.804 38.951 742.886 39.6344 741.827 39.995C738.823 41.0161 735.887 42.2265 733.036 43.619C732.034 44.106 730.905 44.2681 729.806 44.0826C728.708 43.897 727.695 43.3731 726.908 42.584L716.808 32.484C715.799 31.4761 714.431 30.9099 713.005 30.9099C711.579 30.9099 710.211 31.4761 709.202 32.484L687.767 53.908C686.759 54.917 686.193 56.2848 686.193 57.711C686.193 59.1372 686.759 60.505 687.767 61.514L697.689 71.435C698.486 72.2268 699.013 73.2496 699.196 74.3582C699.378 75.4668 699.206 76.6046 698.705 77.61C697.253 80.5146 695.992 83.511 694.931 86.58C694.56 87.6269 693.874 88.533 692.967 89.1736C692.06 89.8142 690.977 90.1578 689.866 90.157H675.907C675.201 90.1568 674.502 90.2956 673.85 90.5656C673.198 90.8357 672.605 91.2316 672.106 91.7307C671.607 92.2299 671.211 92.8225 670.941 93.4748C670.671 94.127 670.532 94.8261 670.532 95.532V125.842C670.532 126.548 670.671 127.247 670.941 127.899C671.211 128.551 671.607 129.144 672.106 129.643C672.605 130.142 673.198 130.538 673.85 130.808C674.502 131.078 675.201 131.217 675.907 131.217H689.5C690.63 131.216 691.732 131.573 692.648 132.235C693.564 132.898 694.247 133.833 694.6 134.907C695.649 138.058 696.904 141.136 698.356 144.122C698.849 145.128 699.016 146.262 698.833 147.368C698.651 148.473 698.129 149.494 697.339 150.288L687.766 159.861C687.266 160.36 686.87 160.952 686.6 161.604C686.329 162.256 686.19 162.955 686.19 163.661C686.19 164.367 686.329 165.066 686.6 165.718C686.87 166.37 687.266 166.962 687.766 167.461L709.2 188.891C710.209 189.899 711.577 190.465 713.003 190.465C714.429 190.465 715.797 189.899 716.806 188.891L726.19 179.506C726.99 178.709 728.02 178.183 729.135 178.003C730.25 177.824 731.393 178 732.403 178.506C735.439 180.023 738.574 181.331 741.788 182.422C742.854 182.782 743.78 183.467 744.436 184.381C745.093 185.294 745.447 186.39 745.449 187.515V200.749C745.448 201.456 745.586 202.156 745.856 202.809C746.125 203.462 746.521 204.056 747.02 204.556C747.519 205.056 748.112 205.453 748.765 205.724C749.418 205.994 750.117 206.134 750.824 206.134H781.124C781.831 206.134 782.53 205.994 783.183 205.724C783.836 205.453 784.429 205.056 784.928 204.556C785.427 204.056 785.823 203.462 786.092 202.809C786.362 202.156 786.5 201.456 786.499 200.749V187.517C786.501 186.392 786.856 185.296 787.512 184.383C788.169 183.47 789.095 182.785 790.16 182.424C793.374 181.333 796.509 180.025 799.545 178.508C800.555 178.002 801.698 177.826 802.813 178.005C803.928 178.185 804.958 178.711 805.758 179.508L815.143 188.893C816.152 189.901 817.519 190.467 818.945 190.467C820.372 190.467 821.739 189.901 822.748 188.893L844.182 167.459C844.682 166.96 845.078 166.368 845.348 165.716C845.619 165.064 845.758 164.365 845.758 163.659C845.758 162.953 845.619 162.254 845.348 161.602C845.078 160.95 844.682 160.358 844.182 159.859L834.609 150.286C833.819 149.492 833.297 148.471 833.115 147.366C832.932 146.26 833.099 145.126 833.592 144.12C835.045 141.134 836.299 138.056 837.348 134.905C837.701 133.831 838.384 132.896 839.3 132.233C840.216 131.571 841.318 131.214 842.448 131.215H856.04C856.746 131.215 857.445 131.076 858.097 130.806C858.749 130.536 859.342 130.14 859.841 129.641C860.34 129.142 860.736 128.549 861.006 127.897C861.276 127.245 861.415 126.546 861.415 125.84V95.532C861.415 94.8264 861.277 94.1277 861.007 93.4757C860.737 92.8237 860.341 92.2313 859.843 91.7321C859.344 91.233 858.752 90.837 858.1 90.5668C857.448 90.2965 856.75 90.1573 856.044 90.157V90.157ZM765.98 155.475C757.121 155.476 748.46 152.849 741.093 147.928C733.727 143.006 727.985 136.011 724.594 127.826C721.204 119.641 720.316 110.635 722.044 101.946C723.773 93.2563 728.039 85.2748 734.303 79.0103C740.568 72.7458 748.549 68.4797 757.239 66.7515C765.928 65.0233 774.934 65.9107 783.119 69.3014C791.304 72.6921 798.299 78.4338 803.221 85.8004C808.142 93.167 810.769 101.828 810.768 110.687C810.767 122.565 806.048 133.956 797.648 142.355C789.249 150.755 777.858 155.474 765.98 155.475V155.475Z" fill="#F4F4F4"/>
<path d="M262.408 417.142H252.155C251.34 417.143 250.545 416.891 249.879 416.42C249.214 415.949 248.712 415.283 248.442 414.514C247.657 412.261 246.728 410.06 245.662 407.925C245.294 407.186 245.168 406.351 245.302 405.536C245.437 404.722 245.824 403.971 246.409 403.389L253.7 396.1C254.441 395.359 254.857 394.354 254.857 393.307C254.857 392.259 254.441 391.254 253.7 390.513L237.957 374.777C237.216 374.037 236.211 373.621 235.164 373.621C234.116 373.621 233.111 374.037 232.37 374.777L224.952 382.196C224.374 382.775 223.63 383.16 222.824 383.296C222.017 383.432 221.188 383.314 220.452 382.956C218.358 381.933 216.201 381.044 213.995 380.294C213.218 380.029 212.543 379.527 212.065 378.859C211.588 378.191 211.332 377.389 211.333 376.568V366.06C211.333 365.542 211.231 365.028 211.033 364.549C210.834 364.07 210.544 363.635 210.177 363.268C209.81 362.901 209.375 362.611 208.896 362.412C208.417 362.214 207.904 362.112 207.385 362.112H185.122C184.604 362.112 184.09 362.214 183.611 362.412C183.132 362.611 182.697 362.901 182.33 363.268C181.963 363.635 181.673 364.07 181.474 364.549C181.276 365.028 181.174 365.542 181.174 366.06V376.57C181.176 377.391 180.92 378.193 180.442 378.861C179.965 379.529 179.29 380.031 178.512 380.296C176.306 381.046 174.149 381.935 172.055 382.958C171.319 383.316 170.49 383.435 169.683 383.299C168.877 383.162 168.133 382.778 167.555 382.198L160.136 374.779C159.395 374.039 158.39 373.623 157.343 373.623C156.295 373.623 155.29 374.039 154.549 374.779L138.806 390.515C138.065 391.256 137.649 392.261 137.649 393.309C137.649 394.356 138.065 395.361 138.806 396.102L146.093 403.389C146.678 403.971 147.066 404.722 147.2 405.536C147.334 406.351 147.208 407.186 146.84 407.925C145.774 410.059 144.847 412.26 144.067 414.514C143.795 415.283 143.291 415.949 142.625 416.419C141.959 416.89 141.164 417.142 140.348 417.142H130.093C129.575 417.142 129.061 417.244 128.582 417.442C128.103 417.641 127.668 417.931 127.301 418.298C126.934 418.665 126.644 419.1 126.445 419.579C126.247 420.058 126.145 420.572 126.145 421.09V443.353C126.145 443.872 126.247 444.385 126.445 444.864C126.644 445.343 126.934 445.778 127.301 446.145C127.668 446.512 128.103 446.802 128.582 447.001C129.061 447.199 129.575 447.301 130.093 447.301H140.077C140.908 447.3 141.717 447.562 142.39 448.048C143.063 448.535 143.565 449.222 143.824 450.011C144.595 452.325 145.516 454.586 146.583 456.78C146.945 457.519 147.068 458.352 146.934 459.164C146.8 459.976 146.416 460.726 145.836 461.309L138.805 468.341C138.438 468.707 138.147 469.142 137.949 469.621C137.751 470.099 137.648 470.612 137.648 471.131C137.648 471.649 137.751 472.162 137.949 472.64C138.147 473.119 138.438 473.554 138.805 473.92L154.548 489.664C155.289 490.405 156.294 490.821 157.342 490.821C158.389 490.821 159.394 490.405 160.135 489.664L167.028 482.77C167.616 482.185 168.372 481.799 169.191 481.667C170.01 481.536 170.85 481.666 171.591 482.038C173.821 483.152 176.124 484.113 178.485 484.914C179.268 485.179 179.948 485.682 180.43 486.352C180.912 487.023 181.172 487.828 181.174 488.654V498.376C181.173 498.895 181.275 499.409 181.473 499.889C181.671 500.368 181.962 500.804 182.328 501.172C182.695 501.539 183.13 501.83 183.61 502.029C184.089 502.228 184.603 502.33 185.122 502.33H207.379C207.898 502.33 208.412 502.228 208.891 502.029C209.371 501.83 209.806 501.539 210.173 501.172C210.539 500.804 210.83 500.368 211.028 499.889C211.226 499.409 211.328 498.895 211.327 498.376V488.654C211.329 487.828 211.589 487.023 212.071 486.352C212.553 485.682 213.233 485.179 214.016 484.914C216.377 484.113 218.68 483.152 220.91 482.038C221.651 481.666 222.491 481.536 223.31 481.667C224.129 481.799 224.886 482.185 225.473 482.77L232.366 489.664C233.107 490.405 234.112 490.821 235.16 490.821C236.207 490.821 237.212 490.405 237.953 489.664L253.7 473.92C254.067 473.554 254.358 473.119 254.556 472.64C254.755 472.162 254.857 471.649 254.857 471.131C254.857 470.612 254.755 470.099 254.556 469.621C254.358 469.142 254.067 468.707 253.7 468.341L246.669 461.309C246.089 460.726 245.705 459.976 245.571 459.164C245.437 458.352 245.56 457.519 245.922 456.78C246.989 454.586 247.91 452.325 248.681 450.011C248.94 449.222 249.442 448.535 250.115 448.048C250.788 447.562 251.598 447.3 252.428 447.301H262.412C262.931 447.301 263.444 447.199 263.923 447.001C264.402 446.802 264.837 446.512 265.204 446.145C265.571 445.778 265.861 445.343 266.06 444.864C266.258 444.385 266.36 443.872 266.36 443.353V421.09C266.36 420.571 266.258 420.057 266.059 419.578C265.861 419.099 265.57 418.663 265.203 418.297C264.836 417.93 264.4 417.639 263.92 417.441C263.441 417.243 262.927 417.141 262.408 417.142ZM196.254 465.119C189.747 465.119 183.386 463.19 177.976 459.574C172.565 455.959 168.349 450.821 165.858 444.809C163.368 438.798 162.717 432.183 163.986 425.801C165.256 419.419 168.389 413.556 172.99 408.955C177.591 404.354 183.454 401.221 189.836 399.951C196.218 398.682 202.833 399.333 208.844 401.823C214.856 404.314 219.994 408.53 223.609 413.941C227.224 419.351 229.154 425.712 229.154 432.219C229.154 436.54 228.303 440.818 226.65 444.809C224.996 448.801 222.573 452.428 219.518 455.483C216.463 458.538 212.836 460.961 208.844 462.615C204.853 464.268 200.575 465.119 196.254 465.119V465.119Z" fill="#F4F4F4"/>
<path d="M185.513 235.216H171.553C170.443 235.218 169.361 234.874 168.455 234.233C167.55 233.593 166.866 232.686 166.498 231.639C165.429 228.571 164.165 225.575 162.714 222.668C162.213 221.663 162.041 220.525 162.224 219.416C162.406 218.307 162.934 217.285 163.731 216.493L173.652 206.572C174.66 205.563 175.226 204.195 175.226 202.769C175.226 201.343 174.66 199.975 173.652 198.966L152.219 177.542C151.21 176.534 149.842 175.968 148.416 175.968C146.99 175.968 145.622 176.534 144.613 177.542L134.513 187.642C133.727 188.431 132.713 188.956 131.615 189.141C130.516 189.327 129.387 189.164 128.385 188.677C125.534 187.285 122.597 186.074 119.593 185.053C118.534 184.692 117.616 184.009 116.966 183.099C116.315 182.189 115.967 181.098 115.969 179.98V165.672C115.969 164.966 115.83 164.267 115.56 163.615C115.29 162.963 114.894 162.37 114.395 161.871C113.896 161.372 113.303 160.976 112.651 160.706C111.999 160.436 111.3 160.297 110.594 160.297H80.294C79.5882 160.297 78.8892 160.436 78.2371 160.706C77.5849 160.976 76.9924 161.372 76.4934 161.871C75.9943 162.37 75.5985 162.963 75.3285 163.615C75.0586 164.267 74.9197 164.966 74.92 165.672V179.98C74.9219 181.098 74.5733 182.189 73.9233 183.099C73.2733 184.009 72.3545 184.692 71.296 185.053C68.2917 186.074 65.3551 187.284 62.504 188.677C61.5021 189.164 60.3729 189.327 59.2742 189.141C58.1755 188.956 57.1623 188.431 56.376 187.642L46.276 177.542C45.267 176.534 43.8992 175.968 42.473 175.968C41.0468 175.968 39.679 176.534 38.67 177.542L17.235 198.966C16.2271 199.975 15.6609 201.343 15.6609 202.769C15.6609 204.195 16.2271 205.563 17.235 206.572L27.157 216.493C27.9541 217.285 28.4812 218.308 28.6636 219.416C28.846 220.525 28.6744 221.663 28.173 222.668C26.7208 225.573 25.4601 228.57 24.399 231.639C24.0281 232.686 23.3419 233.592 22.4348 234.232C21.5278 234.873 20.4445 235.217 19.334 235.216H5.375C4.66912 235.216 3.97008 235.354 3.31784 235.624C2.6656 235.894 2.07296 236.29 1.57378 236.789C1.0746 237.288 0.678671 237.881 0.408632 238.533C0.138594 239.185 -0.000262072 239.884 8.38222e-07 240.59V270.9C-0.00039352 271.606 0.138366 272.305 0.408345 272.957C0.678325 273.61 1.07423 274.202 1.57342 274.702C2.07262 275.201 2.66531 275.597 3.31761 275.867C3.96991 276.137 4.66903 276.275 5.375 276.275H18.967C20.0974 276.274 21.1991 276.631 22.1149 277.294C23.0308 277.956 23.7139 278.891 24.067 279.965C25.116 283.116 26.3707 286.195 27.823 289.181C28.3157 290.187 28.4826 291.321 28.3003 292.426C28.118 293.531 27.5957 294.552 26.806 295.346L17.233 304.919C16.7335 305.418 16.3372 306.01 16.0669 306.662C15.7965 307.314 15.6573 308.013 15.6573 308.719C15.6573 309.425 15.7965 310.124 16.0669 310.776C16.3372 311.428 16.7335 312.02 17.233 312.519L38.667 333.952C39.676 334.96 41.0438 335.526 42.47 335.526C43.8962 335.526 45.264 334.96 46.273 333.952L55.657 324.567C56.4566 323.769 57.4869 323.243 58.602 323.064C59.7172 322.884 60.8605 323.06 61.87 323.567C64.9058 325.084 68.0414 326.392 71.255 327.482C72.3207 327.842 73.2468 328.527 73.9036 329.441C74.5603 330.354 74.9147 331.45 74.917 332.575V345.81C74.9158 346.517 75.0539 347.216 75.3235 347.869C75.593 348.523 75.9886 349.116 76.4878 349.616C76.9869 350.116 77.5797 350.513 78.2323 350.784C78.8849 351.054 79.5845 351.194 80.291 351.194H110.591C111.298 351.194 111.997 351.055 112.65 350.784C113.303 350.513 113.896 350.117 114.395 349.617C114.894 349.116 115.29 348.523 115.559 347.87C115.829 347.217 115.967 346.517 115.966 345.81V332.575C115.968 331.45 116.323 330.354 116.979 329.441C117.636 328.527 118.562 327.842 119.628 327.482C122.841 326.392 125.977 325.084 129.012 323.567C130.021 323.06 131.165 322.884 132.28 323.064C133.395 323.243 134.425 323.769 135.225 324.567L144.61 333.952C145.619 334.96 146.987 335.526 148.413 335.526C149.839 335.526 151.207 334.96 152.216 333.952L173.649 312.519C174.149 312.02 174.545 311.428 174.815 310.776C175.086 310.124 175.225 309.425 175.225 308.719C175.225 308.013 175.086 307.314 174.815 306.662C174.545 306.01 174.149 305.418 173.649 304.919L164.076 295.346C163.286 294.552 162.764 293.531 162.582 292.426C162.399 291.321 162.566 290.187 163.059 289.181C164.512 286.195 165.766 283.116 166.815 279.965C167.168 278.891 167.851 277.956 168.767 277.294C169.683 276.631 170.785 276.274 171.915 276.275H185.508C186.214 276.275 186.913 276.136 187.565 275.866C188.217 275.596 188.81 275.2 189.309 274.701C189.808 274.202 190.204 273.609 190.474 272.957C190.744 272.305 190.882 271.606 190.882 270.9V240.59C190.883 239.165 190.317 237.799 189.31 236.791C188.303 235.783 186.938 235.217 185.513 235.216V235.216ZM95.448 300.533C86.5886 300.534 77.928 297.907 70.5614 292.986C63.1948 288.064 57.4531 281.069 54.0624 272.884C50.6717 264.699 49.7843 255.693 51.5125 247.003C53.2407 238.314 57.5068 230.333 63.7713 224.068C70.0358 217.804 78.0173 213.538 86.7065 211.809C95.3957 210.081 104.402 210.969 112.587 214.359C120.772 217.75 127.767 223.492 132.689 230.858C137.61 238.225 140.237 246.886 140.236 255.745C140.235 267.623 135.516 279.014 127.116 287.413C118.717 295.813 107.326 300.532 95.448 300.533V300.533Z" fill="#F4F4F4"/>
<path d="M141.315 432.491L667.098 432.491C680.01 432.491 690.477 422.024 690.477 409.112V24.158C690.477 11.2461 680.01 0.778961 667.098 0.778961L141.315 0.778961C128.403 0.778961 117.936 11.2461 117.936 24.158V409.112C117.936 422.024 128.403 432.491 141.315 432.491Z" fill="white"/>
<path d="M117.156 409.112V24.158C117.164 17.7531 119.711 11.6127 124.241 7.08384C128.77 2.55497 134.91 0.00741004 141.315 0L667.1 0C673.505 0.00741004 679.645 2.55497 684.174 7.08384C688.703 11.6127 691.251 17.7531 691.259 24.158V409.112C691.252 415.517 688.704 421.658 684.175 426.186C679.646 430.715 673.505 433.263 667.1 433.27H141.315C134.91 433.263 128.769 430.715 124.24 426.186C119.711 421.658 117.163 415.517 117.156 409.112V409.112ZM141.315 1.559C135.323 1.56588 129.579 3.94916 125.342 8.18599C121.105 12.4228 118.722 18.1672 118.715 24.159V409.112C118.722 415.104 121.105 420.848 125.342 425.085C129.579 429.322 135.323 431.705 141.315 431.712H667.1C673.092 431.705 678.836 429.322 683.073 425.085C687.31 420.848 689.693 415.104 689.7 409.112V24.158C689.693 18.1661 687.31 12.4216 683.073 8.1847C678.836 3.94781 673.092 1.56462 667.1 1.558L141.315 1.559Z" fill="#292A2E"/>
<path d="M117.936 24.155V47.68H690.475V24.155C690.475 17.9552 688.012 12.0093 683.629 7.62497C679.245 3.24067 673.3 0.777062 667.1 0.776001H141.315C135.115 0.776001 129.168 3.23914 124.784 7.62355C120.399 12.008 117.936 17.9545 117.936 24.155V24.155Z" fill="#292A2E"/>
<path d="M218.714 261.937C206.194 261.937 193.956 258.224 183.546 251.269C173.137 244.313 165.023 234.427 160.232 222.861C155.441 211.294 154.188 198.567 156.63 186.288C159.073 174.009 165.101 162.73 173.954 153.877C182.807 145.024 194.086 138.996 206.365 136.553C218.644 134.111 231.371 135.364 242.938 140.155C254.504 144.946 264.391 153.06 271.346 163.469C278.302 173.879 282.014 186.117 282.014 198.637C281.995 215.419 275.319 231.509 263.452 243.375C251.586 255.242 235.496 261.918 218.714 261.937V261.937ZM218.714 137.337C206.59 137.337 194.738 140.932 184.658 147.668C174.577 154.404 166.72 163.977 162.08 175.178C157.441 186.38 156.227 198.705 158.592 210.596C160.957 222.487 166.795 233.41 175.368 241.983C183.941 250.556 194.864 256.394 206.755 258.759C218.646 261.124 230.971 259.91 242.172 255.271C253.374 250.631 262.947 242.774 269.683 232.693C276.419 222.613 280.014 210.761 280.014 198.637C279.996 182.384 273.532 166.802 262.04 155.309C250.548 143.817 234.967 137.352 218.714 137.333V137.337Z" fill="#292A2E"/>
<path d="M404.206 261.937C391.686 261.937 379.448 258.224 369.038 251.269C358.629 244.313 350.515 234.427 345.724 222.861C340.933 211.294 339.68 198.567 342.122 186.288C344.565 174.009 350.594 162.73 359.446 153.877C368.299 145.024 379.578 138.996 391.857 136.553C404.136 134.111 416.863 135.364 428.43 140.155C439.996 144.946 449.883 153.06 456.838 163.469C463.794 173.879 467.506 186.117 467.506 198.637C467.487 215.419 460.811 231.509 448.945 243.375C437.078 255.242 420.988 261.918 404.206 261.937V261.937ZM404.206 137.337C392.082 137.337 380.23 140.932 370.15 147.668C360.069 154.404 352.212 163.977 347.572 175.178C342.933 186.38 341.719 198.705 344.084 210.596C346.449 222.487 352.287 233.41 360.86 241.983C369.433 250.556 380.356 256.394 392.247 258.759C404.138 261.124 416.463 259.91 427.665 255.271C438.866 250.631 448.439 242.774 455.175 232.693C461.911 222.613 465.506 210.761 465.506 198.637C465.488 182.384 459.024 166.802 447.532 155.309C436.04 143.817 420.459 137.352 404.206 137.333V137.337Z" fill="#292A2E"/>
<path d="M589.7 261.937C577.18 261.937 564.942 258.224 554.532 251.269C544.123 244.313 536.009 234.427 531.218 222.861C526.427 211.294 525.174 198.567 527.616 186.288C530.059 174.009 536.087 162.73 544.94 153.877C553.793 145.024 565.072 138.996 577.351 136.553C589.63 134.111 602.357 135.364 613.924 140.155C625.49 144.946 635.376 153.06 642.332 163.469C649.287 173.879 653 186.117 653 198.637C652.981 215.419 646.305 231.509 634.438 243.375C622.572 255.242 606.482 261.918 589.7 261.937ZM589.7 137.337C577.576 137.337 565.724 140.932 555.643 147.668C545.563 154.404 537.706 163.977 533.066 175.178C528.426 186.38 527.213 198.705 529.578 210.596C531.943 222.487 537.781 233.41 546.354 241.983C554.927 250.556 565.85 256.394 577.741 258.759C589.632 261.124 601.957 259.91 613.158 255.271C624.36 250.631 633.933 242.774 640.669 232.693C647.405 222.613 651 210.761 651 198.637C650.982 182.384 644.518 166.802 633.026 155.309C621.534 143.817 605.953 137.352 589.7 137.333V137.337Z" fill="#292A2E"/>
<path opacity="0.6" d="M629.104 207.756V168.343H583.629V199.267H617.253L629.104 207.756Z" fill="#0CBC8B"/>
<path d="M550.294 236.398V183.094H611.798V224.917H566.323L550.294 236.398Z" fill="#0CBC8B"/>
<path d="M564.235 209.745C567.179 209.745 569.565 207.359 569.565 204.415C569.565 201.471 567.179 199.085 564.235 199.085C561.291 199.085 558.905 201.471 558.905 204.415C558.905 207.359 561.291 209.745 564.235 209.745Z" fill="white"/>
<path d="M581.046 209.745C583.99 209.745 586.376 207.359 586.376 204.415C586.376 201.471 583.99 199.085 581.046 199.085C578.102 199.085 575.716 201.471 575.716 204.415C575.716 207.359 578.102 209.745 581.046 209.745Z" fill="white"/>
<path d="M597.857 209.745C600.801 209.745 603.187 207.359 603.187 204.415C603.187 201.471 600.801 199.085 597.857 199.085C594.913 199.085 592.527 201.471 592.527 204.415C592.527 207.359 594.913 209.745 597.857 209.745Z" fill="white"/>
<path d="M250.252 218.005C250.864 218.414 251.296 219.043 251.457 219.761C251.619 220.479 251.498 221.232 251.119 221.864L247.671 227.609C246.756 229.163 245.279 230.305 243.545 230.799C237.814 232.371 225.176 232.687 204.918 212.432C184.66 192.177 184.979 179.532 186.551 173.804C187.044 172.07 188.186 170.592 189.739 169.676L195.486 166.229C196.117 165.85 196.87 165.729 197.588 165.891C198.307 166.053 198.935 166.485 199.343 167.098L208.505 180.841C208.905 181.443 209.063 182.174 208.947 182.887C208.831 183.6 208.45 184.244 207.88 184.688L202.734 188.688C202.194 189.105 201.822 189.701 201.684 190.369C201.546 191.036 201.651 191.731 201.982 192.328C203.492 195.044 204.923 198.245 212.009 205.34C219.095 212.435 222.309 213.857 225.021 215.367C225.617 215.698 226.312 215.803 226.98 215.665C227.648 215.526 228.243 215.153 228.659 214.612L232.659 209.469C233.103 208.898 233.746 208.516 234.46 208.4C235.174 208.284 235.905 208.443 236.507 208.844L250.252 218.005Z" fill="#0CBC8B"/>
<path opacity="0.6" d="M436.827 220.885H371.842C371.111 220.889 370.409 220.602 369.889 220.088C369.37 219.574 369.076 218.875 369.072 218.144L368.845 179.195C368.843 178.872 368.905 178.552 369.026 178.254C369.148 177.955 369.328 177.683 369.555 177.454C369.781 177.224 370.051 177.042 370.349 176.917C370.646 176.792 370.965 176.727 371.288 176.725L436.873 176.389C437.524 176.385 438.15 176.641 438.612 177.098C439.075 177.556 439.337 178.179 439.341 178.83L439.568 218.115C439.57 218.477 439.501 218.836 439.364 219.171C439.227 219.506 439.026 219.811 438.771 220.068C438.517 220.325 438.214 220.53 437.88 220.67C437.547 220.81 437.189 220.883 436.827 220.885V220.885Z" fill="#0CBC8B"/>
<path d="M438.642 177.125C434.762 179.975 406.583 200.715 406.553 200.735C405.788 201.164 404.922 201.381 404.044 201.363C403.167 201.346 402.31 201.094 401.563 200.635L369.512 177.505C369.74 177.261 370.016 177.065 370.322 176.931C370.628 176.797 370.959 176.727 371.293 176.725L436.872 176.385C437.201 176.384 437.528 176.449 437.832 176.576C438.136 176.703 438.411 176.89 438.642 177.125V177.125Z" fill="#0CBC8B"/>
<path d="M707.619 225.167C720.206 225.167 730.409 214.964 730.409 202.377C730.409 189.79 720.206 179.587 707.619 179.587C695.033 179.587 684.829 189.79 684.829 202.377C684.829 214.964 695.033 225.167 707.619 225.167Z" fill="#367CFF"/>
<path d="M696.939 200.218C696.353 200.218 695.779 200.047 695.29 199.725C694.8 199.403 694.415 198.944 694.183 198.406C693.772 197.453 684.232 174.685 694.594 141.285C705.818 105.106 744.913 104.685 745.306 104.685C746.102 104.685 746.865 105.001 747.427 105.564C747.99 106.126 748.306 106.889 748.306 107.685C748.306 108.481 747.99 109.244 747.427 109.806C746.865 110.369 746.102 110.685 745.306 110.685V110.685C743.878 110.685 710.218 111.156 700.319 143.061C690.608 174.361 699.595 195.814 699.687 196.027C699.884 196.483 699.965 196.981 699.921 197.477C699.878 197.972 699.713 198.448 699.44 198.864C699.167 199.279 698.795 199.62 698.358 199.856C697.92 200.092 697.431 200.216 696.934 200.216L696.939 200.218Z" fill="#367CFF"/>
<path d="M699.368 225.167C711.955 225.167 722.158 214.964 722.158 202.377C722.158 189.79 711.955 179.587 699.368 179.587C686.782 179.587 676.578 189.79 676.578 202.377C676.578 214.964 686.782 225.167 699.368 225.167Z" fill="#367CFF"/>
<path opacity="0.3" d="M699.368 225.167C711.955 225.167 722.158 214.964 722.158 202.377C722.158 189.79 711.955 179.587 699.368 179.587C686.782 179.587 676.578 189.79 676.578 202.377C676.578 214.964 686.782 225.167 699.368 225.167Z" fill="white"/>
<path d="M704.836 225.167C717.423 225.167 727.626 214.964 727.626 202.377C727.626 189.79 717.423 179.587 704.836 179.587C692.25 179.587 682.046 189.79 682.046 202.377C682.046 214.964 692.25 225.167 704.836 225.167Z" fill="#367CFF"/>
<path d="M812.337 161.371C812.337 161.371 819.659 196.456 828.403 207.071C853.579 237.628 864.628 274.335 846.563 296.725C828.498 319.115 702.651 337.199 686.563 293.47C673.022 256.655 687.549 250.136 687.726 218.236C687.806 203.801 689.803 173.359 689.803 173.359" fill="#0A0A0A"/>
<path d="M707.158 274.908C707.388 274.878 709.941 317.238 759.152 313.545C793.22 310.993 805.367 274.845 806.152 274.845C802.479 274.065 796.294 272.929 794.663 272.059C789.298 269.176 782.663 266.177 780.931 255.759C779.931 249.759 781.626 219.037 781.105 212.959L728.811 224.631C729.542 237.461 734.656 267.206 716.731 272.47C713.744 273.347 710.531 274.148 707.158 274.908Z" fill="#E98862"/>
<path opacity="0.5" d="M728.073 260.32C728.892 257.68 729.42 254.959 729.646 252.204C730.221 245.918 730.107 239.587 729.304 233.326C739.932 231.892 749.945 227.505 758.204 220.664C759.176 224.25 764.516 239.92 763.037 243.328C760.244 249.771 747.111 260.32 728.073 260.32Z" fill="#0C0C0C"/>
<path d="M737.383 251.015C758.083 250.237 783.417 238.499 785.224 210.55L786.855 185.332C788.662 157.384 775.448 133.778 749.133 132.076C722.818 130.376 701.683 151.759 699.876 179.708L699.154 190.872C698.461 201.6 700.451 252.4 737.383 251.015Z" fill="#E98862"/>
<path opacity="0.1" d="M745.559 213.613C748.976 213.56 751.714 211.487 751.676 208.981C751.638 206.475 748.837 204.486 745.421 204.538C742.004 204.59 739.265 206.664 739.304 209.17C739.342 211.676 742.143 213.665 745.559 213.613Z" fill="#0C0C0C"/>
<path opacity="0.1" d="M708.7 208.538C708.731 211.038 705.993 213.113 702.577 213.17C701.986 213.178 701.396 213.126 700.816 213.013C700.264 210.098 699.874 207.274 699.607 204.647C700.51 204.288 701.471 204.1 702.442 204.094C705.861 204.037 708.661 206.026 708.7 208.538Z" fill="#0C0C0C"/>
<path d="M707.769 189.713C709.557 189.713 711.006 188.264 711.006 186.476C711.006 184.688 709.557 183.239 707.769 183.239C705.981 183.239 704.532 184.688 704.532 186.476C704.532 188.264 705.981 189.713 707.769 189.713Z" fill="#0C0C0C"/>
<path d="M739.8 192.106C741.588 192.106 743.037 190.657 743.037 188.869C743.037 187.081 741.588 185.632 739.8 185.632C738.012 185.632 736.563 187.081 736.563 188.869C736.563 190.657 738.012 192.106 739.8 192.106Z" fill="#0C0C0C"/>
<path opacity="0.5" d="M724.587 214.147H724.536C723.469 214.07 722.407 213.934 721.355 213.741C719.783 213.441 717.703 212.879 717.794 211.482C717.894 209.889 723.369 192.989 723.994 191.067C724.054 190.905 724.173 190.773 724.328 190.698C724.483 190.622 724.661 190.61 724.825 190.663C724.989 190.716 725.126 190.831 725.207 190.983C725.288 191.135 725.307 191.312 725.26 191.478C722.924 198.678 719.192 210.496 719.123 211.568C719.353 212.032 721.977 212.646 724.623 212.818C724.794 212.831 724.953 212.909 725.068 213.036C725.182 213.162 725.244 213.329 725.239 213.5C725.235 213.671 725.165 213.833 725.043 213.954C724.922 214.075 724.759 214.144 724.588 214.148L724.587 214.147Z" fill="#0C0C0C"/>
<path opacity="0.5" d="M729.846 225.47C725.585 225.443 721.389 224.416 717.598 222.47C717.52 222.432 717.449 222.378 717.392 222.313C717.334 222.247 717.29 222.171 717.261 222.088C717.204 221.921 717.216 221.738 717.293 221.58C717.371 221.422 717.508 221.3 717.675 221.243C717.842 221.186 718.025 221.197 718.183 221.275C726.36 225.275 733.983 225.147 740.22 220.905C740.346 220.815 740.477 220.732 740.611 220.656C740.768 220.585 740.946 220.577 741.108 220.634C741.27 220.691 741.404 220.808 741.482 220.962C741.559 221.115 741.574 221.293 741.524 221.457C741.473 221.622 741.361 221.76 741.211 221.844C741.161 221.872 741.08 221.928 740.967 222.006C737.687 224.241 733.815 225.448 729.846 225.47V225.47Z" fill="#0C0C0C"/>
<path d="M808.161 191.364L784.588 189.975C766.26 185.059 757.26 155.486 757.26 155.486C757.26 155.486 742.598 178.765 689.76 173.335C689.76 173.335 687.185 99.367 765.731 111.891C790.99 115.919 811.645 138.106 813.515 171.346C814.825 194.641 808.161 191.364 808.161 191.364Z" fill="#0A0A0A"/>
<path d="M783.039 218.959C791.039 219.477 798.072 211.34 798.589 203.343C799.106 195.346 792.909 190.517 784.912 190L780.444 195.092L776.163 218.515L783.039 218.959Z" fill="#E98862"/>
<path d="M716.766 179.155C714.632 178.04 712.24 177.51 709.835 177.619C708.626 177.666 707.431 177.895 706.29 178.298C705.139 178.699 704.042 179.243 703.026 179.917L702.994 179.937C702.881 180.006 702.745 180.029 702.615 179.999C702.486 179.97 702.373 179.891 702.301 179.779C702.228 179.667 702.203 179.532 702.229 179.402C702.256 179.272 702.332 179.157 702.442 179.082C703.512 178.319 704.674 177.693 705.9 177.22C707.134 176.738 708.434 176.444 709.755 176.348C712.43 176.138 715.113 176.649 717.523 177.828C717.704 177.919 717.842 178.077 717.906 178.27C717.97 178.462 717.956 178.672 717.865 178.853C717.774 179.034 717.616 179.172 717.423 179.236C717.231 179.3 717.021 179.286 716.84 179.195L716.821 179.185L716.766 179.155Z" fill="#0C0C0C"/>
<path d="M738.137 179.225C740.676 178.355 743.401 178.182 746.029 178.725C747.328 178.985 748.581 179.438 749.746 180.069C750.904 180.691 751.979 181.456 752.946 182.347C753.044 182.435 753.103 182.558 753.112 182.689C753.122 182.821 753.079 182.95 752.995 183.051C752.91 183.152 752.79 183.216 752.659 183.231C752.528 183.245 752.397 183.208 752.293 183.127L752.262 183.103C751.338 182.308 750.318 181.631 749.226 181.09C748.144 180.548 746.986 180.172 745.792 179.976C743.419 179.568 740.981 179.797 738.725 180.637L738.67 180.659C738.577 180.696 738.477 180.713 738.376 180.711C738.276 180.709 738.177 180.687 738.085 180.647C737.993 180.607 737.91 180.549 737.841 180.476C737.771 180.404 737.717 180.319 737.68 180.225C737.644 180.132 737.626 180.032 737.628 179.931C737.63 179.831 737.652 179.732 737.692 179.64C737.732 179.548 737.79 179.465 737.863 179.396C737.935 179.326 738.021 179.272 738.114 179.235L738.137 179.225Z" fill="#0C0C0C"/>
<path opacity="0.52" d="M729.718 231.781C728.948 231.788 728.179 231.729 727.418 231.606C727.332 231.592 727.249 231.562 727.175 231.516C727.1 231.47 727.035 231.41 726.984 231.34C726.933 231.269 726.896 231.189 726.876 231.104C726.855 231.019 726.852 230.931 726.866 230.844C726.879 230.758 726.91 230.675 726.956 230.601C727.001 230.527 727.061 230.462 727.132 230.411C727.203 230.359 727.283 230.322 727.368 230.302C727.453 230.282 727.541 230.278 727.627 230.292C732.203 231.02 734.509 229.025 734.606 228.94C734.737 228.822 734.91 228.76 735.086 228.769C735.262 228.778 735.427 228.857 735.546 228.987C735.664 229.118 735.725 229.291 735.716 229.467C735.708 229.643 735.629 229.809 735.498 229.927C733.844 231.194 731.801 231.849 729.718 231.781V231.781Z" fill="#0C0C0C"/>
<path d="M784.845 189.625C768.631 185.962 762.07 175.989 759.422 168.267C757.687 163.113 757.048 157.654 757.546 152.239L758.046 152.306C757.558 157.65 758.191 163.038 759.905 168.123C762.515 175.717 768.98 185.523 784.961 189.138L784.845 189.625Z" fill="#0C0C0C"/>
<path d="M535.513 291.214L519.466 260.955C519.113 260.29 518.626 259.707 518.035 259.241C517.444 258.775 516.763 258.437 516.034 258.249C515.306 258.061 514.546 258.026 513.803 258.148C513.061 258.27 512.352 258.544 511.721 258.955C510.58 259.749 509.774 260.938 509.46 262.292C509.146 263.646 509.346 265.069 510.021 266.284L513.462 272.772L493.276 257.335C491.062 255.579 487.222 254.841 485.416 257.455C484.656 258.415 484.244 259.605 484.246 260.83C484.249 262.055 484.667 263.243 485.431 264.2C485.41 264.217 485.39 264.236 485.371 264.256C485.358 264.274 485.355 264.295 485.344 264.313L481.93 261.6C481.297 261.099 480.561 260.745 479.774 260.565C478.987 260.384 478.17 260.382 477.383 260.557C476.595 260.733 475.856 261.082 475.22 261.579C474.584 262.076 474.067 262.709 473.707 263.431C473.163 264.58 473.029 265.881 473.329 267.116C473.629 268.351 474.344 269.446 475.354 270.218L476.808 271.37C476.794 271.428 476.79 271.487 476.797 271.546C475.635 270.996 474.315 270.876 473.073 271.21C471.831 271.543 470.748 272.308 470.018 273.366C469.253 274.548 468.963 275.975 469.204 277.362C469.444 278.749 470.2 279.994 471.318 280.849L474.927 283.71C474.847 283.705 474.768 283.72 474.695 283.752C474.622 283.785 474.558 283.834 474.508 283.896C474.453 283.973 474.421 284.064 474.416 284.158C473.245 283.955 472.039 284.143 470.985 284.692C469.931 285.242 469.086 286.122 468.581 287.198C468.074 288.339 467.966 289.618 468.276 290.828C468.586 292.038 469.295 293.107 470.288 293.864L500.741 318.005C505.001 321.382 510.173 323.41 515.594 323.829C521.014 324.247 526.436 323.038 531.164 320.355V320.355C535.241 318.042 538.255 314.231 539.567 309.73C540.879 305.23 540.384 300.396 538.188 296.255L535.513 291.214Z" fill="#E98862"/>
<g opacity="0.2">
<path d="M505.337 279.577C505.255 279.679 505.137 279.744 505.007 279.76C504.877 279.776 504.747 279.74 504.643 279.66L485.465 264.955C485.413 264.915 485.369 264.865 485.336 264.808C485.303 264.751 485.282 264.689 485.274 264.623C485.265 264.558 485.269 264.492 485.286 264.429C485.303 264.365 485.333 264.306 485.373 264.254C485.413 264.201 485.462 264.158 485.519 264.125C485.576 264.092 485.639 264.071 485.704 264.062C485.769 264.053 485.836 264.058 485.899 264.075C485.962 264.092 486.022 264.121 486.074 264.161L505.252 278.867C505.357 278.948 505.426 279.067 505.443 279.198C505.46 279.329 505.425 279.462 505.344 279.567L505.337 279.577Z" fill="#0C0C0C"/>
</g>
<g opacity="0.2">
<path d="M499.084 288.214C499.002 288.316 498.884 288.381 498.754 288.397C498.624 288.412 498.494 288.377 498.39 288.297L476.99 271.886C476.885 271.805 476.816 271.686 476.799 271.555C476.781 271.424 476.817 271.291 476.897 271.186C476.981 271.085 477.099 271.019 477.229 271.002C477.359 270.985 477.49 271.017 477.597 271.093L499 287.5C499.105 287.581 499.174 287.7 499.191 287.831C499.209 287.962 499.173 288.095 499.093 288.2L499.084 288.214Z" fill="#0C0C0C"/>
</g>
<g opacity="0.2">
<path d="M492.367 297.608C492.285 297.71 492.167 297.775 492.037 297.791C491.907 297.806 491.777 297.771 491.673 297.691L474.6 284.6C474.495 284.519 474.426 284.4 474.409 284.268C474.391 284.137 474.427 284.004 474.508 283.898C474.588 283.793 474.708 283.724 474.839 283.707C474.971 283.69 475.104 283.725 475.209 283.806L492.281 296.9C492.386 296.981 492.455 297.1 492.472 297.231C492.49 297.362 492.454 297.495 492.374 297.6L492.367 297.608Z" fill="#0C0C0C"/>
</g>
<path d="M649.812 292.891L597.923 383.844L544.891 287.01L481.517 322.394L566.835 472.314C569.598 477.131 573.451 481.234 578.085 484.293C585.859 489.387 595.338 491.185 604.437 489.291C613.536 487.397 621.51 481.966 626.605 474.193L627.043 473.524L718.043 334.659L649.812 292.891Z" fill="#367CFF"/>
<path d="M535.513 291.214L519.466 260.955C519.113 260.29 518.626 259.707 518.035 259.241C517.444 258.775 516.763 258.437 516.034 258.249C515.305 258.061 514.546 258.026 513.803 258.148C513.061 258.269 512.352 258.544 511.721 258.955C510.58 259.749 509.774 260.938 509.46 262.292C509.146 263.646 509.346 265.069 510.021 266.284L513.462 272.772L518.812 284.488" fill="#E98862"/>
<path d="M760.07 302.956C794.162 301.349 795.597 272.413 795.597 272.413C795.597 272.413 812.489 273.504 823.718 275.024C842.103 277.511 854.23 283.745 863.882 293.396C872.86 302.375 878.326 312.088 872.542 374.107C868.354 419.007 871.301 517.786 871.301 517.786H665.551C665.551 517.786 653.213 388.321 651.493 368.107C648.211 329.518 634.769 307.767 653.557 287.889C667.182 273.473 702.357 272.413 716.515 272.415C716.746 272.415 713.642 305.145 760.07 302.956Z" fill="#367CFF"/>
<path d="M652.691 361.654C652.683 361.521 652.622 361.398 652.522 361.31C652.423 361.222 652.292 361.177 652.16 361.186C652.027 361.194 651.903 361.255 651.815 361.354C651.727 361.454 651.683 361.584 651.691 361.717L655.875 428.545C655.883 428.665 655.933 428.778 656.017 428.864C656.102 428.95 656.214 429.002 656.334 429.012C656.358 429.014 656.381 429.014 656.405 429.012C656.471 429.008 656.535 428.991 656.594 428.962C656.653 428.933 656.706 428.893 656.749 428.844C656.793 428.794 656.826 428.737 656.847 428.675C656.868 428.612 656.877 428.547 656.873 428.481" fill="#0C0C0C"/>
<path d="M698.022 459.207L664.74 451.12C664.009 450.942 663.248 450.919 662.507 451.051C661.767 451.184 661.061 451.469 660.437 451.889C659.812 452.309 659.282 452.854 658.88 453.49C658.477 454.126 658.212 454.839 658.1 455.583C657.936 456.963 658.291 458.355 659.095 459.489C659.9 460.622 661.096 461.417 662.453 461.718L669.59 463.452L644.644 468.3C641.862 468.79 638.76 471.172 639.517 474.258C639.73 475.464 640.346 476.563 641.264 477.374C642.182 478.185 643.348 478.661 644.571 478.725C644.568 478.752 644.568 478.779 644.571 478.806C644.571 478.828 644.589 478.844 644.595 478.865L640.304 479.621C639.509 479.762 638.756 480.078 638.099 480.547C637.442 481.015 636.897 481.625 636.506 482.33C636.114 483.036 635.885 483.82 635.834 484.626C635.784 485.431 635.914 486.238 636.215 486.987C636.713 488.157 637.597 489.12 638.72 489.716C639.843 490.312 641.136 490.504 642.384 490.26L644.21 489.938C644.244 489.987 644.286 490.029 644.334 490.063C643.151 490.567 642.186 491.475 641.611 492.625C641.036 493.775 640.889 495.092 641.196 496.341C641.571 497.698 642.445 498.864 643.642 499.606C644.839 500.347 646.272 500.61 647.654 500.341L652.19 499.541C652.134 499.597 652.092 499.666 652.068 499.742C652.043 499.818 652.038 499.898 652.051 499.977C652.071 500.07 652.118 500.155 652.186 500.221C651.257 500.962 650.597 501.988 650.308 503.141C650.019 504.294 650.116 505.51 650.586 506.602C651.102 507.739 651.987 508.669 653.097 509.24C654.208 509.812 655.479 509.992 656.704 509.751L694.976 503C700.33 502.056 705.28 499.535 709.191 495.759C713.103 491.983 715.798 487.125 716.93 481.808C717.907 477.223 717.057 472.438 714.562 468.47C712.067 464.501 708.123 461.662 703.568 460.555L698.022 459.207Z" fill="#E98862"/>
<g opacity="0.2">
<path d="M669.287 474.049C669.309 474.178 669.279 474.311 669.205 474.418C669.13 474.526 669.016 474.6 668.887 474.624L645.158 479.204C645.094 479.216 645.027 479.216 644.963 479.203C644.899 479.19 644.837 479.164 644.783 479.127C644.729 479.09 644.682 479.043 644.646 478.988C644.61 478.933 644.585 478.872 644.572 478.808C644.56 478.743 644.56 478.677 644.574 478.612C644.587 478.548 644.613 478.487 644.649 478.433C644.686 478.378 644.733 478.332 644.788 478.296C644.843 478.259 644.904 478.234 644.969 478.222L668.698 473.641C668.763 473.629 668.829 473.629 668.894 473.642C668.958 473.656 669.02 473.682 669.074 473.719C669.129 473.756 669.175 473.804 669.211 473.859C669.247 473.914 669.272 473.976 669.284 474.041L669.287 474.049Z" fill="#0C0C0C"/>
</g>
<g opacity="0.2">
<path d="M671.6 484.459C671.622 484.588 671.592 484.72 671.517 484.828C671.442 484.935 671.329 485.009 671.2 485.033L644.718 490.145C644.653 490.157 644.587 490.157 644.522 490.143C644.458 490.13 644.397 490.104 644.342 490.067C644.288 490.029 644.242 489.982 644.206 489.927C644.17 489.871 644.145 489.81 644.133 489.745C644.112 489.615 644.142 489.482 644.217 489.373C644.291 489.264 644.404 489.188 644.533 489.16L671.015 484.048C671.08 484.036 671.146 484.036 671.211 484.05C671.275 484.063 671.336 484.089 671.391 484.126C671.445 484.164 671.491 484.211 671.527 484.266C671.563 484.322 671.588 484.383 671.6 484.448V484.459Z" fill="#0C0C0C"/>
</g>
<g opacity="0.2">
<path d="M674.161 495.719C674.183 495.848 674.153 495.98 674.078 496.088C674.003 496.195 673.889 496.269 673.761 496.293L652.637 500.371C652.573 500.383 652.506 500.383 652.442 500.37C652.378 500.357 652.316 500.331 652.262 500.294C652.208 500.258 652.161 500.21 652.125 500.156C652.089 500.101 652.063 500.039 652.051 499.975C652.039 499.911 652.039 499.844 652.052 499.78C652.065 499.716 652.091 499.654 652.128 499.6C652.164 499.546 652.212 499.499 652.266 499.463C652.321 499.427 652.383 499.401 652.447 499.389L673.571 495.311C673.636 495.299 673.702 495.299 673.767 495.312C673.831 495.326 673.893 495.352 673.947 495.389C674.002 495.426 674.048 495.474 674.084 495.529C674.12 495.584 674.145 495.646 674.157 495.711L674.161 495.719Z" fill="#0C0C0C"/>
</g>
<path d="M694.707 516.091L873.545 517.067C879.305 517.694 885.132 516.978 890.569 514.974C896.005 512.971 900.904 509.735 904.88 505.521C908.856 501.306 911.801 496.227 913.485 490.683C915.168 485.139 915.544 479.281 914.583 473.567L874.741 313.967C873.95 309.088 872.202 304.413 869.598 300.212C866.994 296.01 863.585 292.365 859.567 289.486C855.549 286.607 851.002 284.551 846.186 283.435C841.371 282.32 836.382 282.167 831.508 282.987C826.633 283.806 821.969 285.581 817.783 288.21C813.596 290.838 809.971 294.269 807.116 298.303C804.26 302.338 802.23 306.897 801.143 311.719C800.056 316.541 799.932 321.53 800.78 326.4L831.336 446.636L695.572 451.1L694.707 516.091Z" fill="#367CFF"/>
<path d="M854.712 446.132C854.838 446.131 854.958 446.083 855.05 445.997C855.142 445.911 855.198 445.794 855.207 445.669C855.216 445.543 855.178 445.419 855.1 445.321C855.021 445.223 854.909 445.157 854.785 445.138L831.624 445.979C831.559 445.968 831.493 445.971 831.429 445.986C831.365 446.002 831.304 446.03 831.251 446.069C831.198 446.108 831.154 446.157 831.12 446.214C831.087 446.271 831.065 446.334 831.056 446.399C831.037 446.53 831.07 446.663 831.149 446.77C831.227 446.876 831.345 446.947 831.476 446.967L854.637 446.126C854.662 446.13 854.687 446.132 854.712 446.132Z" fill="#0C0C0C"/>
<path d="M868.343 517.786C868.476 517.795 868.606 517.75 868.706 517.663C868.806 517.575 868.867 517.451 868.876 517.319C868.884 517.186 868.84 517.055 868.752 516.955C868.664 516.856 868.541 516.795 868.408 516.786L695.753 515.709L696.511 451.709L831.463 446.966C831.541 446.976 831.62 446.968 831.694 446.943C831.768 446.917 831.834 446.874 831.889 446.818C831.943 446.761 831.984 446.693 832.007 446.618C832.03 446.543 832.035 446.464 832.022 446.387L817.305 374.117C817.295 374.052 817.272 373.989 817.238 373.933C817.203 373.877 817.157 373.829 817.104 373.79C817.05 373.752 816.989 373.725 816.925 373.711C816.861 373.696 816.794 373.695 816.729 373.707C816.598 373.729 816.482 373.802 816.405 373.91C816.328 374.018 816.297 374.152 816.319 374.283L830.919 445.883L696.131 450.647C696.065 450.638 695.998 450.643 695.933 450.66C695.869 450.678 695.809 450.708 695.756 450.75C695.704 450.791 695.66 450.842 695.628 450.901C695.595 450.959 695.575 451.024 695.568 451.09L694.703 516.09C694.689 516.22 694.726 516.35 694.807 516.453C694.888 516.556 695.006 516.623 695.135 516.64L868.274 517.781C868.297 517.784 868.32 517.786 868.343 517.786V517.786Z" fill="#0C0C0C"/>
<path d="M610.469 499.007L561.545 348.618C560.686 345.975 559.012 343.673 556.763 342.04C554.515 340.406 551.807 339.527 549.028 339.527H349.71C347.632 339.527 345.584 340.019 343.733 340.962C341.882 341.905 340.28 343.274 339.059 344.955C337.838 346.636 337.032 348.582 336.708 350.634C336.383 352.686 336.549 354.786 337.192 356.762L386.116 507.152C386.976 509.795 388.65 512.098 390.898 513.731C393.146 515.364 395.854 516.243 398.633 516.243H597.951C600.029 516.243 602.077 515.751 603.928 514.808C605.779 513.864 607.381 512.496 608.602 510.815C609.823 509.134 610.629 507.187 610.953 505.135C611.278 503.083 611.112 500.983 610.469 499.007Z" fill="#292A2E"/>
<path d="M703.983 504.049H570.561C567.236 504.049 564.541 506.744 564.541 510.069V510.223C564.541 513.548 567.236 516.243 570.561 516.243H703.983C707.308 516.243 710.003 513.548 710.003 510.223V510.069C710.003 506.744 707.308 504.049 703.983 504.049Z" fill="#292A2E"/>
<path d="M470.831 453.126C482.377 453.126 491.736 443.767 491.736 432.221C491.736 420.676 482.377 411.316 470.831 411.316C459.286 411.316 449.926 420.676 449.926 432.221C449.926 443.767 459.286 453.126 470.831 453.126Z" fill="white"/>
<path d="M796.635 198.957C795.839 198.957 795.076 198.641 794.514 198.078C793.951 197.516 793.635 196.753 793.635 195.957V161.783C793.635 144.393 788.821 130.614 779.715 121.936C771.084 113.71 758.698 109.927 742.915 110.684C742.52 110.705 742.125 110.648 741.753 110.516C741.38 110.384 741.037 110.179 740.744 109.914C740.451 109.649 740.213 109.329 740.043 108.972C739.874 108.614 739.778 108.227 739.759 107.832C739.74 107.437 739.799 107.043 739.933 106.671C740.067 106.299 740.273 105.957 740.54 105.665C740.806 105.373 741.128 105.137 741.486 104.97C741.844 104.803 742.232 104.708 742.627 104.691C760.118 103.846 773.993 108.191 783.859 117.591C794.182 127.43 799.639 142.711 799.639 161.782V195.956C799.639 196.35 799.561 196.741 799.411 197.105C799.26 197.47 799.038 197.801 798.759 198.079C798.48 198.358 798.149 198.579 797.784 198.73C797.42 198.88 797.029 198.958 796.635 198.957V198.957Z" fill="#367CFF"/>
<path d="M792.151 225.167C804.738 225.167 814.941 214.964 814.941 202.377C814.941 189.79 804.738 179.587 792.151 179.587C779.565 179.587 769.361 189.79 769.361 202.377C769.361 214.964 779.565 225.167 792.151 225.167Z" fill="#367CFF"/>
<path d="M793.031 219.449C792.872 219.333 792.691 219.251 792.499 219.205C792.307 219.159 792.109 219.152 791.914 219.183C791.72 219.214 791.533 219.283 791.365 219.387C791.197 219.49 791.052 219.625 790.936 219.785L789.193 222.194C787.056 225.139 784.252 227.537 781.012 229.192C777.771 230.847 774.185 231.712 770.546 231.717H742.8V231.13C742.8 230.334 742.484 229.571 741.922 229.009C741.359 228.446 740.596 228.13 739.8 228.13H730.41C729.615 228.13 728.851 228.446 728.289 229.009C727.726 229.571 727.41 230.334 727.41 231.13V235.522C727.41 236.318 727.726 237.081 728.289 237.643C728.851 238.206 729.615 238.522 730.41 238.522H739.8C740.596 238.522 741.359 238.206 741.922 237.643C742.484 237.081 742.8 236.318 742.8 235.522V234.722H770.546C774.659 234.716 778.712 233.738 782.375 231.867C786.038 229.997 789.207 227.287 791.623 223.958L793.367 221.549C793.484 221.389 793.567 221.208 793.613 221.016C793.659 220.824 793.667 220.624 793.636 220.429C793.604 220.234 793.535 220.047 793.431 219.879C793.327 219.711 793.192 219.565 793.031 219.449V219.449Z" fill="#367CFF"/>
<path d="M797.619 225.167C810.206 225.167 820.409 214.964 820.409 202.377C820.409 189.79 810.206 179.587 797.619 179.587C785.033 179.587 774.829 189.79 774.829 202.377C774.829 214.964 785.033 225.167 797.619 225.167Z" fill="#367CFF"/>
<path opacity="0.3" d="M797.619 225.167C810.206 225.167 820.409 214.964 820.409 202.377C820.409 189.79 810.206 179.587 797.619 179.587C785.033 179.587 774.829 189.79 774.829 202.377C774.829 214.964 785.033 225.167 797.619 225.167Z" fill="white"/>
<path d="M364.778 518.786H917.778C918.043 518.786 918.298 518.681 918.485 518.493C918.673 518.306 918.778 518.051 918.778 517.786C918.778 517.521 918.673 517.266 918.485 517.079C918.298 516.891 918.043 516.786 917.778 516.786H364.778C364.513 516.786 364.258 516.891 364.071 517.079C363.883 517.266 363.778 517.521 363.778 517.786C363.778 518.051 363.883 518.306 364.071 518.493C364.258 518.681 364.513 518.786 364.778 518.786Z" fill="#292A2E"/>
</g>
<defs>
<clipPath id="clip0_103_315">
<rect width="918.777" height="518.786" fill="white"/>
</clipPath>
</defs>
</svg>
