<svg width="370.5" height="421.5" viewBox="0 0 741 843" fill="none" xmlns="http://www.w3.org/2000/svg">
<path d="M413.9 0H61.675V352.225H413.9V0Z" fill="#F4F4F4"/>
<path d="M61.675 0H57.638V352.225H61.675V0Z" fill="#F4F4F4"/>
<path opacity="0.05" d="M61.675 0H57.638V352.225H61.675V0Z" fill="#292A2E"/>
<path opacity="0.05" d="M147.003 242.712V150.558H222.491V204.098H339.421V298.895H389.118V352.225H339.421H329.847H78.619V242.712H147.003Z" fill="#292A2E"/>
<path opacity="0.34" d="M212.801 160.564H157.83V170.57H212.801V160.564Z" fill="#FFFFFA"/>
<path opacity="0.34" d="M212.801 181.298H157.83V191.304H212.801V181.298Z" fill="#FFFFFA"/>
<path opacity="0.34" d="M212.801 202.032H157.83V212.038H212.801V202.032Z" fill="#FFFFFA"/>
<path opacity="0.34" d="M98.498 252.424H88.366V262.43H98.498V252.424Z" fill="#FFFFFA"/>
<path opacity="0.34" d="M98.498 273.158H88.366V283.164H98.498V273.158Z" fill="#FFFFFA"/>
<path opacity="0.34" d="M98.498 293.893H88.366V303.899H98.498V293.893Z" fill="#FFFFFA"/>
<path opacity="0.34" d="M117.242 252.424H107.11V262.43H117.242V252.424Z" fill="#FFFFFA"/>
<path opacity="0.34" d="M117.242 273.158H107.11V283.164H117.242V273.158Z" fill="#FFFFFA"/>
<path opacity="0.34" d="M117.242 293.893H107.11V303.899H117.242V293.893Z" fill="#FFFFFA"/>
<path opacity="0.34" d="M135.48 252.424H125.348V262.43H135.48V252.424Z" fill="#FFFFFA"/>
<path opacity="0.34" d="M135.48 273.158H125.348V283.164H135.48V273.158Z" fill="#FFFFFA"/>
<path opacity="0.34" d="M135.48 293.893H125.348V303.899H135.48V293.893Z" fill="#FFFFFA"/>
<path d="M61.675 174.137H132.549V0H138.41V174.137H329.847V0H335.708V174.137H413.9V179.998H335.708V352.225H329.847V179.998H138.41V352.225H132.549V179.998H61.675V174.137Z" fill="white"/>
<path d="M427.932 351.8H47.644V363.514H427.932V351.8Z" fill="#F4F4F4"/>
<path opacity="0.1" d="M427.932 351.8H47.644V363.514H427.932V351.8Z" fill="#292A2E"/>
<path opacity="0.1" d="M47.644 351.8H42.153V363.514H47.644V351.8Z" fill="#292A2E"/>
<path opacity="0.1" d="M47.644 351.8H42.153V363.514H47.644V351.8Z" fill="#292A2E"/>
<path d="M57.638 14.996L413.9 14.996V6.28697L57.638 6.28697V14.996Z" fill="white"/>
<path d="M57.638 31.264L413.9 31.264V22.555L57.638 22.555V31.264Z" fill="white"/>
<path d="M57.638 47.531L413.9 47.531V38.822L57.638 38.822V47.531Z" fill="white"/>
<path d="M57.638 63.798L413.9 63.798V55.089L57.638 55.089V63.798Z" fill="white"/>
<path d="M57.638 80.064L413.9 80.064V71.355L57.638 71.355V80.064Z" fill="white"/>
<path d="M95.477 89.887H100.816L100.816 2.28882e-05H95.477L95.477 89.887Z" fill="white"/>
<path d="M97.694 102.796C101.745 102.796 105.029 99.512 105.029 95.461C105.029 91.41 101.745 88.126 97.694 88.126C93.643 88.126 90.359 91.41 90.359 95.461C90.359 99.512 93.643 102.796 97.694 102.796Z" fill="white"/>
<path d="M60.748 841.816L58.784 841.438L89.48 536.407L91.444 536.785L60.748 841.816Z" fill="#494949"/>
<path d="M175.046 841.816L173.082 841.438L203.777 536.407L205.741 536.785L175.046 841.816Z" fill="#494949"/>
<path d="M427.694 841.816L429.658 841.438L398.962 536.407L396.998 536.785L427.694 841.816Z" fill="#494949"/>
<path d="M313.396 841.816L315.36 841.438L284.665 536.407L282.701 536.785L313.396 841.816Z" fill="#494949"/>
<path d="M272.689 402.162L270.707 402.427L288.639 536.731L290.621 536.466L272.689 402.162Z" fill="#494949"/>
<path d="M66.8645 402.16L64.8821 402.425L82.814 536.729L84.7964 536.465L66.8645 402.16Z" fill="#494949"/>
<path d="M290.448 526.761H89.128C83.6963 526.761 79.293 531.164 79.293 536.596V536.597C79.293 542.029 83.6963 546.432 89.128 546.432H290.448C295.88 546.432 300.283 542.029 300.283 536.597V536.596C300.283 531.164 295.88 526.761 290.448 526.761Z" fill="#292A2E"/>
<path opacity="0.8" d="M290.448 526.761H89.128C83.6963 526.761 79.293 531.164 79.293 536.596V536.597C79.293 542.029 83.6963 546.432 89.128 546.432H290.448C295.88 546.432 300.283 542.029 300.283 536.597V536.596C300.283 531.164 295.88 526.761 290.448 526.761Z" fill="white"/>
<path d="M290.448 547.431H89.129C87.7061 547.431 86.2972 547.151 84.9826 546.606C83.6681 546.062 82.4736 545.264 81.4675 544.258C80.4614 543.251 79.6633 542.057 79.1188 540.742C78.5743 539.428 78.294 538.019 78.294 536.596C78.294 535.173 78.5743 533.764 79.1188 532.45C79.6633 531.135 80.4614 529.941 81.4675 528.935C82.4736 527.928 83.6681 527.13 84.9826 526.586C86.2972 526.041 87.7061 525.761 89.129 525.761H290.448C291.871 525.761 293.28 526.041 294.594 526.586C295.909 527.13 297.103 527.928 298.109 528.935C299.116 529.941 299.914 531.135 300.458 532.45C301.003 533.764 301.283 535.173 301.283 536.596C301.283 538.019 301.003 539.428 300.458 540.742C299.914 542.057 299.116 543.251 298.109 544.258C297.103 545.264 295.909 546.062 294.594 546.606C293.28 547.151 291.871 547.431 290.448 547.431V547.431ZM89.129 527.761C87.9688 527.761 86.8199 527.99 85.748 528.434C84.6761 528.878 83.7021 529.528 82.8817 530.349C82.0613 531.169 81.4105 532.143 80.9665 533.215C80.5225 534.287 80.294 535.436 80.294 536.596C80.294 537.756 80.5225 538.905 80.9665 539.977C81.4105 541.049 82.0613 542.023 82.8817 542.843C83.7021 543.664 84.6761 544.314 85.748 544.758C86.8199 545.202 87.9688 545.431 89.129 545.431H290.448C291.608 545.431 292.757 545.202 293.829 544.758C294.901 544.314 295.875 543.664 296.695 542.843C297.516 542.023 298.166 541.049 298.61 539.977C299.054 538.905 299.283 537.756 299.283 536.596C299.283 535.436 299.054 534.287 298.61 533.215C298.166 532.143 297.516 531.169 296.695 530.349C295.875 529.528 294.901 528.878 293.829 528.434C292.757 527.99 291.608 527.761 290.448 527.761H89.129Z" fill="#292A2E"/>
<path d="M400.944 526.761H199.624C194.192 526.761 189.789 531.164 189.789 536.596V536.597C189.789 542.029 194.192 546.432 199.624 546.432H400.944C406.376 546.432 410.779 542.029 410.779 536.597V536.596C410.779 531.164 406.376 526.761 400.944 526.761Z" fill="white"/>
<path d="M400.944 547.431H199.624C198.201 547.431 196.792 547.151 195.478 546.606C194.163 546.062 192.969 545.264 191.963 544.258C190.956 543.251 190.158 542.057 189.614 540.742C189.069 539.428 188.789 538.019 188.789 536.596C188.789 535.173 189.069 533.764 189.614 532.45C190.158 531.135 190.956 529.941 191.963 528.935C192.969 527.928 194.163 527.13 195.478 526.586C196.792 526.041 198.201 525.761 199.624 525.761H400.944C402.367 525.761 403.776 526.041 405.09 526.586C406.405 527.13 407.599 527.928 408.606 528.935C409.612 529.941 410.41 531.135 410.954 532.45C411.499 533.764 411.779 535.173 411.779 536.596C411.779 538.019 411.499 539.428 410.954 540.742C410.41 542.057 409.612 543.251 408.606 544.258C407.599 545.264 406.405 546.062 405.09 546.606C403.776 547.151 402.367 547.431 400.944 547.431V547.431ZM199.624 527.761C198.464 527.761 197.315 527.99 196.243 528.434C195.171 528.878 194.197 529.528 193.377 530.349C192.556 531.169 191.906 532.143 191.462 533.215C191.018 534.287 190.789 535.436 190.789 536.596C190.789 537.756 191.018 538.905 191.462 539.977C191.906 541.049 192.556 542.023 193.377 542.843C194.197 543.664 195.171 544.314 196.243 544.758C197.315 545.202 198.464 545.431 199.624 545.431H400.944C402.104 545.431 403.253 545.202 404.325 544.758C405.397 544.314 406.371 543.664 407.191 542.843C408.012 542.023 408.663 541.049 409.107 539.977C409.551 538.905 409.779 537.756 409.779 536.596C409.779 535.436 409.551 534.287 409.107 533.215C408.663 532.143 408.012 531.169 407.191 530.349C406.371 529.528 405.397 528.878 404.325 528.434C403.253 527.99 402.104 527.761 400.944 527.761H199.624Z" fill="#292A2E"/>
<path d="M261.66 402.292H66.413C63.2207 402.292 60.1376 401.13 57.739 399.023C55.3405 396.917 53.7904 394.01 53.378 390.844L40.463 291.665C40.2217 289.811 40.3786 287.927 40.9233 286.138C41.4681 284.35 42.3881 282.698 43.622 281.293C44.8559 279.888 46.3753 278.763 48.0787 277.992C49.7821 277.221 51.6303 276.823 53.5 276.823H248.745C251.937 276.823 255.02 277.985 257.419 280.091C259.818 282.197 261.368 285.105 261.78 288.27L274.694 387.45C274.936 389.304 274.779 391.188 274.234 392.976C273.69 394.765 272.77 396.416 271.536 397.821C270.303 399.226 268.784 400.351 267.081 401.122C265.378 401.893 263.53 402.292 261.66 402.292V402.292Z" fill="#292A2E"/>
<path opacity="0.8" d="M261.66 402.292H66.413C63.2207 402.292 60.1376 401.13 57.739 399.023C55.3405 396.917 53.7904 394.01 53.378 390.844L40.463 291.665C40.2217 289.811 40.3786 287.927 40.9233 286.138C41.4681 284.35 42.3881 282.698 43.622 281.293C44.8559 279.888 46.3753 278.763 48.0787 277.992C49.7821 277.221 51.6303 276.823 53.5 276.823H248.745C251.937 276.823 255.02 277.985 257.419 280.091C259.818 282.197 261.368 285.105 261.78 288.27L274.694 387.45C274.936 389.304 274.779 391.188 274.234 392.976C273.69 394.765 272.77 396.416 271.536 397.821C270.303 399.226 268.784 400.351 267.081 401.122C265.378 401.893 263.53 402.292 261.66 402.292V402.292Z" fill="white"/>
<path d="M261.66 403.292H66.413C62.9799 403.284 59.6662 402.031 57.0867 399.766C54.5072 397.501 52.837 394.376 52.386 390.973L39.472 291.794C39.212 289.799 39.3806 287.771 39.9666 285.846C40.5526 283.922 41.5426 282.144 42.8703 280.632C44.198 279.121 45.833 277.91 47.666 277.08C49.4991 276.251 51.488 275.822 53.5 275.822H248.745C252.178 275.83 255.492 277.082 258.071 279.348C260.651 281.613 262.32 284.738 262.771 288.141L275.686 387.321C275.946 389.316 275.777 391.343 275.191 393.268C274.605 395.192 273.616 396.97 272.288 398.481C270.961 399.993 269.326 401.204 267.493 402.033C265.66 402.863 263.672 403.292 261.66 403.292V403.292ZM53.5 277.822C51.7727 277.822 50.0653 278.191 48.4918 278.903C46.9182 279.615 45.5147 280.655 44.3749 281.953C43.2351 283.251 42.3853 284.777 41.8821 286.429C41.3789 288.082 41.234 289.822 41.457 291.535L54.372 390.715C54.7589 393.637 56.1928 396.32 58.4075 398.265C60.6222 400.21 63.4674 401.286 66.415 401.292H261.66C263.387 401.292 265.094 400.923 266.667 400.21C268.241 399.498 269.644 398.458 270.783 397.16C271.923 395.862 272.772 394.336 273.275 392.684C273.778 391.032 273.923 389.292 273.7 387.579L260.788 288.4C260.401 285.478 258.967 282.796 256.752 280.85C254.538 278.905 251.693 277.83 248.745 277.823L53.5 277.822Z" fill="#292A2E"/>
<path d="M272.7 402.292H77.453C74.2608 402.292 71.1778 401.13 68.7794 399.023C66.381 396.917 64.8311 394.009 64.419 390.844L51.5 291.665C51.2587 289.811 51.4155 287.927 51.9602 286.139C52.5048 284.35 53.4246 282.698 54.6583 281.294C55.892 279.889 57.4111 278.764 59.1143 277.993C60.8175 277.222 62.6655 276.823 64.535 276.823H259.786C262.978 276.823 266.061 277.985 268.46 280.091C270.858 282.197 272.408 285.105 272.82 288.27L285.735 387.45C285.976 389.304 285.819 391.188 285.275 392.976C284.73 394.765 283.81 396.417 282.577 397.821C281.343 399.226 279.824 400.351 278.121 401.122C276.418 401.893 274.57 402.292 272.7 402.292V402.292Z" fill="white"/>
<path d="M272.7 403.292H77.453C74.0201 403.284 70.7065 402.031 68.1271 399.766C65.5478 397.5 63.8778 394.376 63.427 390.973L50.512 291.794C50.2523 289.799 50.4212 287.772 51.0072 285.847C51.5933 283.922 52.5832 282.145 53.9107 280.633C55.2383 279.122 56.873 277.911 58.7058 277.081C60.5385 276.251 62.5272 275.822 64.539 275.822H259.785C263.218 275.83 266.532 277.083 269.111 279.348C271.691 281.613 273.361 284.738 273.812 288.141L286.727 387.321C286.987 389.316 286.818 391.343 286.231 393.268C285.645 395.192 284.655 396.969 283.328 398.481C282 399.992 280.366 401.203 278.533 402.033C276.7 402.863 274.712 403.292 272.7 403.292V403.292ZM64.539 277.822C62.812 277.823 61.1051 278.192 59.532 278.905C57.9589 279.617 56.5559 280.657 55.4166 281.955C54.2772 283.253 53.4277 284.779 52.9248 286.431C52.4219 288.083 52.2771 289.823 52.5 291.536L65.41 390.715C65.7973 393.637 67.2313 396.319 69.4459 398.264C71.6606 400.209 74.5055 401.285 77.453 401.292H272.7C274.427 401.292 276.135 400.923 277.708 400.211C279.282 399.499 280.685 398.459 281.825 397.161C282.965 395.863 283.815 394.337 284.318 392.685C284.821 391.033 284.966 389.292 284.743 387.579L271.828 288.4C271.441 285.478 270.007 282.795 267.793 280.85C265.578 278.905 262.733 277.829 259.785 277.823L64.539 277.822Z" fill="#292A2E"/>
<path d="M424.471 424.937L422.481 425.138L464.639 842.487L466.628 842.286L424.471 424.937Z" fill="#494949"/>
<path d="M251.659 124.563C251.659 124.563 264.633 114.77 267.848 92.228C270.337 74.775 254.237 86.082 254.237 86.082C254.237 86.082 255.907 73.497 246.737 74.746C237.567 75.995 232.437 89.215 232.437 89.215" fill="#0C0C0C"/>
<path d="M199.348 76.219C199.348 76.219 153.853 81.1 170.3 142.744L174.326 143.014L182.498 143.562" fill="#0C0C0C"/>
<path d="M244.039 207.126C243.839 207.1 241.619 243.926 198.833 240.719C169.213 238.5 158.652 207.074 157.973 207.074C161.167 206.396 165.113 205.365 166.682 205.012C170.1 204.218 173.196 202.403 175.557 199.807C177.918 197.211 179.433 193.958 179.9 190.48C180.767 185.26 179.3 158.552 179.749 153.27L225.216 163.418C224.581 174.574 220.134 200.435 235.716 205.012C238.313 205.769 241.106 206.465 244.039 207.126Z" fill="#E98862"/>
<path opacity="0.52" d="M225.855 194.443C225.143 192.148 224.684 189.781 224.487 187.386C223.988 181.92 224.089 176.417 224.787 170.973C215.546 169.726 206.84 165.912 199.658 159.964C198.814 163.082 194.171 176.706 195.458 179.669C197.883 185.271 209.3 194.443 225.855 194.443Z" fill="#0C0C0C"/>
<path d="M216.471 187.154C198.533 185.545 177.064 174.212 176.755 149.863L176.475 127.893C176.166 103.545 188.703 83.644 211.629 83.352C234.554 83.061 251.941 102.581 252.25 126.93L252.374 136.656C252.358 139.996 252.115 143.332 251.645 146.639C250.469 155.389 248.645 168.692 242.708 177.691C237.1 186.187 227.93 188.181 216.471 187.154Z" fill="#E98862"/>
<path d="M224.793 164.9C228.495 165.068 232.184 164.363 235.563 162.843C235.633 162.813 235.696 162.77 235.749 162.716C235.802 162.661 235.844 162.597 235.873 162.527C235.901 162.456 235.915 162.381 235.914 162.305C235.914 162.229 235.898 162.154 235.868 162.084C235.838 162.014 235.795 161.951 235.741 161.898C235.686 161.845 235.622 161.803 235.552 161.774C235.481 161.746 235.406 161.732 235.33 161.733C235.254 161.733 235.179 161.749 235.109 161.779C227.829 164.884 221.218 164.429 215.992 160.464C215.887 160.38 215.777 160.302 215.663 160.231C215.532 160.17 215.382 160.161 215.244 160.204C215.106 160.248 214.99 160.342 214.918 160.468C214.845 160.593 214.823 160.741 214.854 160.882C214.886 161.024 214.969 161.148 215.088 161.231C215.13 161.257 215.197 161.31 215.288 161.383C218.036 163.475 221.345 164.7 224.793 164.9V164.9Z" fill="#0C0C0C"/>
<path d="M224.62 170.383C225.289 170.424 225.96 170.408 226.626 170.335C226.779 170.319 226.918 170.243 227.015 170.123C227.111 170.004 227.156 169.851 227.14 169.699C227.124 169.546 227.048 169.407 226.928 169.31C226.809 169.214 226.657 169.169 226.504 169.185C222.497 169.611 220.585 167.775 220.504 167.696C220.396 167.587 220.249 167.526 220.095 167.526C219.942 167.526 219.795 167.587 219.686 167.695C219.577 167.803 219.516 167.95 219.516 168.104C219.516 168.257 219.577 168.404 219.685 168.513C221.065 169.688 222.808 170.348 224.62 170.383V170.383Z" fill="#0C0C0C"/>
<path d="M244.679 141.338C246.239 141.338 247.503 140.074 247.503 138.514C247.503 136.954 246.239 135.69 244.679 135.69C243.119 135.69 241.855 136.954 241.855 138.514C241.855 140.074 243.119 141.338 244.679 141.338Z" fill="#0C0C0C"/>
<path d="M217.091 139.607C218.651 139.607 219.915 138.343 219.915 136.783C219.915 135.223 218.651 133.959 217.091 133.959C215.531 133.959 214.267 135.223 214.267 136.783C214.267 138.343 215.531 139.607 217.091 139.607Z" fill="#0C0C0C"/>
<path d="M178.273 157.263C171.306 157.352 165.564 149.97 165.473 143.003C165.382 136.036 170.983 132.122 177.95 132.034L181.599 136.656L184.261 157.187L178.273 157.263Z" fill="#E98862"/>
<path d="M185.2 146.068C185.2 146.068 187.553 111.615 198 109.487C204.958 108.07 221.831 117.94 237.459 114.959C244.297 113.659 250.788 115.347 251.448 118.577C251.709 119.856 255.969 101.477 245.262 87.533C236.737 76.428 208.839 73.293 196.147 76.933C161.004 87.015 176.512 133.55 176.512 133.55L178.079 145.428L185.2 146.068Z" fill="#0C0C0C"/>
<path d="M229 156.767H229.045C231.29 156.744 235.053 156.456 235.038 154.776C235.023 153.384 231.063 138.401 230.61 136.697C230.567 136.556 230.47 136.436 230.341 136.364C230.212 136.293 230.059 136.274 229.916 136.311C229.773 136.349 229.651 136.441 229.574 136.568C229.497 136.694 229.473 136.846 229.505 136.99C231.264 143.626 233.884 153.842 233.895 154.79C233.678 155.19 231.359 155.602 229.034 155.626C228.887 155.629 228.748 155.688 228.643 155.792C228.539 155.895 228.479 156.034 228.474 156.181C228.47 156.327 228.522 156.47 228.62 156.579C228.718 156.689 228.854 156.756 229 156.768V156.767Z" fill="#0C0C0C"/>
<path d="M236.664 123.2C239.024 122.551 241.515 122.551 243.874 123.2C245.033 123.511 246.139 123.996 247.154 124.636C248.158 125.263 249.078 126.014 249.893 126.872C250.049 127.023 250.14 127.23 250.146 127.447C250.152 127.665 250.072 127.876 249.924 128.035C249.776 128.195 249.572 128.29 249.355 128.301C249.138 128.311 248.925 128.236 248.762 128.092L248.711 128.048C247.956 127.349 247.116 126.748 246.211 126.259C245.323 125.773 244.367 125.423 243.374 125.223C241.42 124.813 239.393 124.927 237.497 125.552L237.417 125.58C237.104 125.691 236.76 125.672 236.461 125.529C236.161 125.386 235.931 125.13 235.821 124.817C235.71 124.505 235.728 124.161 235.871 123.861C236.014 123.562 236.27 123.332 236.583 123.221L236.664 123.2Z" fill="#0C0C0C"/>
<path d="M219.956 124.619C218.161 123.746 216.167 123.364 214.176 123.51C213.166 123.576 212.171 123.794 211.226 124.158C210.265 124.523 209.354 125.007 208.514 125.598L208.46 125.634C208.28 125.75 208.062 125.791 207.851 125.75C207.641 125.709 207.455 125.589 207.331 125.414C207.207 125.239 207.155 125.024 207.186 124.812C207.217 124.6 207.329 124.408 207.498 124.276C208.42 123.534 209.433 122.912 210.511 122.424C211.603 121.925 212.763 121.593 213.953 121.438C216.378 121.107 218.848 121.438 221.1 122.396C221.405 122.529 221.645 122.777 221.767 123.086C221.889 123.396 221.883 123.741 221.75 124.046C221.617 124.351 221.369 124.591 221.06 124.713C220.75 124.835 220.405 124.829 220.1 124.696L220.031 124.663L219.956 124.619Z" fill="#0C0C0C"/>
<path d="M233.306 99.484C238.463 98.4066 241.358 91.3801 239.772 83.7899C238.186 76.1997 232.72 70.9201 227.563 71.9975C222.406 73.0749 219.511 80.1014 221.097 87.6916C222.683 95.2818 228.149 100.561 233.306 99.484Z" fill="#0C0C0C"/>
<path d="M520.921 789.739C520.921 789.739 526.283 817.532 552.305 819.081C578.327 820.63 572.685 841.361 572.685 841.361H473.241V791.677L520.921 789.739Z" fill="#367CFF"/>
<path d="M331.733 772.191C331.733 772.191 324.276 799.497 346.943 812.373C369.61 825.249 355.395 841.361 355.395 841.361L266.163 797.461L288.094 752.879L331.733 772.191Z" fill="#367CFF"/>
<path d="M276.466 764.478L351.715 527.088H215.315C187.915 527.088 176.493 503.853 176.493 476.455C176.493 449.057 203.429 425.039 230.827 425.039H414.917C431.628 425.039 450.366 435.259 459.538 449.229C468.71 463.199 466.23 484.846 459.585 500.18L339.085 792.846" fill="#262626"/>
<path opacity="0.8" d="M276.466 764.478L351.715 527.088H215.315C187.915 527.088 176.493 503.853 176.493 476.455C176.493 449.057 203.429 425.039 230.827 425.039H414.917C431.628 425.039 450.366 435.259 459.538 449.229C468.71 463.199 466.23 484.846 459.585 500.18L339.085 792.846" fill="#0A0A0A"/>
<path d="M467.522 815.55L341.7 527.088L176.491 527.077C137.78 524.042 120.051 502.827 120.615 475.435C121.171 448.39 134.865 421.677 161.788 421.677H384.46C404.38 422.086 420.052 444.1 427.442 462.602L532.042 797.89" fill="#262626"/>
<path d="M109.347 422.008C109.347 422.008 102.01 469.854 113.64 496.455C128.159 529.665 182.587 527.077 182.587 527.077L179.52 421.677L109.347 422.008Z" fill="#262626"/>
<path d="M432.176 421.067L315.476 396.885C310.613 395.877 306.083 393.659 302.305 390.437C298.526 387.214 295.622 383.09 293.86 378.447L247.96 257.494C246.562 253.864 245.896 249.994 245.998 246.105C246.101 242.217 246.971 238.387 248.558 234.836C250.145 231.284 252.418 228.082 255.246 225.412C258.075 222.741 261.403 220.656 265.04 219.276C268.677 217.896 272.55 217.248 276.438 217.369C280.326 217.491 284.152 218.379 287.695 219.983C291.239 221.587 294.43 223.876 297.087 226.717C299.743 229.559 301.812 232.897 303.175 236.54L343.327 342.34L444.162 363.234C444.162 363.234 434.2 421.486 432.176 421.067Z" fill="#367CFF"/>
<path d="M297.2 288.209C295.853 304.042 286.3 402.819 285 422.321H109.424C108.415 404.732 105.14 330.055 101.314 295.66C97.663 262.838 96.338 244.108 100.544 233.909C107.962 215.919 126.525 209.446 142.515 207.281C152.278 205.96 166.963 205.012 166.963 205.012C166.963 205.012 168.207 230.165 197.855 231.565C238.214 233.465 235.519 205.012 235.719 205.012C242.257 205.012 277.847 209.767 286.746 215.567C299.316 223.76 303.03 234.924 303.177 245.181C303.346 256.992 298.728 270.253 297.2 288.209Z" fill="#367CFF"/>
<path d="M290.3 368.921H290.258C290.192 368.916 290.129 368.897 290.07 368.867C290.012 368.837 289.96 368.796 289.918 368.746C289.875 368.696 289.843 368.637 289.823 368.575C289.803 368.512 289.795 368.446 289.801 368.381L294.359 313.627C294.363 313.561 294.38 313.496 294.409 313.437C294.439 313.378 294.48 313.325 294.53 313.283C294.581 313.24 294.639 313.208 294.702 313.188C294.766 313.169 294.832 313.163 294.898 313.17C294.963 313.175 295.027 313.194 295.086 313.224C295.144 313.254 295.196 313.295 295.238 313.345C295.281 313.395 295.313 313.453 295.333 313.516C295.353 313.579 295.36 313.644 295.355 313.71L290.797 368.464C290.786 368.588 290.729 368.704 290.637 368.789C290.545 368.874 290.425 368.921 290.3 368.921Z" fill="#0C0C0C"/>
<path d="M373.919 401.783L412.443 283.359C413.12 281.278 414.438 279.464 416.209 278.178C417.979 276.892 420.112 276.2 422.3 276.2H589.252C590.888 276.2 592.501 276.587 593.959 277.33C595.417 278.073 596.678 279.15 597.639 280.474C598.601 281.798 599.235 283.33 599.491 284.947C599.746 286.563 599.615 288.216 599.109 289.772L550.585 408.2C549.908 410.281 548.59 412.094 546.819 413.38C545.049 414.666 542.916 415.359 540.728 415.359H383.776C382.14 415.359 380.526 414.972 379.068 414.229C377.61 413.486 376.348 412.408 375.387 411.084C374.425 409.759 373.791 408.226 373.536 406.61C373.281 404.993 373.412 403.339 373.919 401.783Z" fill="#292A2E"/>
<path d="M373.919 401.783L412.443 283.359C413.12 281.278 414.438 279.464 416.209 278.178C417.979 276.892 420.112 276.2 422.3 276.2H589.252C590.888 276.2 592.501 276.587 593.959 277.33C595.417 278.073 596.678 279.15 597.639 280.474C598.601 281.798 599.235 283.33 599.491 284.947C599.746 286.563 599.615 288.216 599.109 289.772L550.585 408.2C549.908 410.281 548.59 412.094 546.819 413.38C545.049 414.666 542.916 415.359 540.728 415.359H383.776C382.14 415.359 380.526 414.972 379.068 414.229C377.61 413.486 376.348 412.408 375.387 411.084C374.425 409.759 373.791 408.226 373.536 406.61C373.281 404.993 373.412 403.339 373.919 401.783Z" fill="#292A2E"/>
<path d="M405.345 405.752H300.281C297.663 405.752 295.541 407.874 295.541 410.492V410.614C295.541 413.232 297.663 415.354 300.281 415.354H405.345C407.963 415.354 410.085 413.232 410.085 410.614V410.492C410.085 407.874 407.963 405.752 405.345 405.752Z" fill="#292A2E"/>
<path d="M405.345 405.752H300.281C297.663 405.752 295.541 407.874 295.541 410.492V410.614C295.541 413.232 297.663 415.354 300.281 415.354H405.345C407.963 415.354 410.085 413.232 410.085 410.614V410.492C410.085 407.874 407.963 405.752 405.345 405.752Z" fill="#292A2E"/>
<path d="M481.514 368.016C490.605 368.016 497.975 360.646 497.975 351.555C497.975 342.464 490.605 335.094 481.514 335.094C472.423 335.094 465.053 342.464 465.053 351.555C465.053 360.646 472.423 368.016 481.514 368.016Z" fill="white"/>
<path d="M365.137 374.042L338.916 364.851L342.68 364.591C343.894 364.483 345.021 363.918 345.834 363.011C346.647 362.103 347.085 360.921 347.06 359.703C347.025 359.075 346.863 358.46 346.583 357.897C346.302 357.334 345.911 356.834 345.431 356.427C344.951 356.02 344.393 355.715 343.792 355.531C343.19 355.347 342.557 355.288 341.932 355.356L295.541 360.286L296.741 375.194C297.115 379.824 298.864 384.237 301.763 387.867C304.662 391.497 308.578 394.179 313.011 395.568L333.101 401.826C334.139 402.172 335.264 402.148 336.286 401.759C337.308 401.371 338.164 400.641 338.71 399.693C339.184 398.827 339.37 397.832 339.239 396.853C339.108 395.874 338.667 394.963 337.982 394.252C338.026 394.221 338.064 394.18 338.092 394.134C338.121 394.087 338.139 394.035 338.147 393.981C338.154 393.928 338.151 393.873 338.136 393.82C338.122 393.768 338.097 393.719 338.063 393.676L341.763 394.837C342.918 395.225 344.177 395.16 345.286 394.655C346.394 394.15 347.27 393.243 347.735 392.117C348.116 391.096 348.124 389.973 347.758 388.947C347.392 387.921 346.676 387.056 345.735 386.506C345.779 386.483 345.817 386.452 345.849 386.414L347.371 386.891C348.409 387.237 349.534 387.213 350.556 386.824C351.578 386.435 352.435 385.705 352.98 384.757C353.555 383.707 353.701 382.475 353.388 381.319C353.075 380.163 352.327 379.173 351.3 378.557C351.309 378.526 351.313 378.495 351.314 378.463L362.234 382.29C362.777 382.486 363.353 382.573 363.93 382.546C364.507 382.518 365.072 382.376 365.594 382.129C366.115 381.881 366.583 381.532 366.969 381.103C367.355 380.674 367.652 380.172 367.843 379.627C368.033 379.082 368.114 378.505 368.081 377.929C368.047 377.352 367.9 376.788 367.647 376.269C367.394 375.75 367.041 375.287 366.608 374.905C366.174 374.523 365.67 374.231 365.123 374.046L365.137 374.042Z" fill="#E98862"/>
<path opacity="0.2" d="M350.9 378.886C350.849 378.886 350.799 378.877 350.751 378.86L340.189 375.019C340.08 374.979 339.992 374.898 339.944 374.793C339.895 374.688 339.89 374.568 339.93 374.46C339.97 374.351 340.051 374.263 340.156 374.215C340.261 374.166 340.381 374.161 340.489 374.201L351.052 378.042C351.148 378.077 351.229 378.145 351.28 378.233C351.332 378.322 351.35 378.426 351.332 378.527C351.314 378.627 351.262 378.719 351.183 378.785C351.105 378.85 351.005 378.886 350.903 378.886H350.9Z" fill="#0A0A0A"/>
<path opacity="0.2" d="M345.559 386.565C345.509 386.565 345.46 386.557 345.413 386.54L337.088 383.586C337.033 383.568 336.982 383.539 336.938 383.501C336.895 383.463 336.859 383.417 336.833 383.365C336.808 383.313 336.793 383.256 336.789 383.198C336.786 383.14 336.794 383.082 336.813 383.028C336.833 382.973 336.863 382.923 336.902 382.88C336.941 382.837 336.988 382.802 337.041 382.778C337.093 382.754 337.15 382.74 337.208 382.738C337.266 382.736 337.324 382.745 337.378 382.766L345.704 385.72C345.801 385.754 345.882 385.822 345.934 385.91C345.986 385.999 346.005 386.103 345.987 386.204C345.97 386.305 345.918 386.396 345.839 386.462C345.761 386.529 345.662 386.565 345.559 386.565V386.565Z" fill="#0A0A0A"/>
<path opacity="0.2" d="M337.719 394.358C337.666 394.358 337.614 394.348 337.564 394.329L333.664 392.842C333.556 392.801 333.469 392.718 333.422 392.613C333.375 392.508 333.372 392.388 333.413 392.28C333.454 392.172 333.537 392.085 333.642 392.038C333.747 391.991 333.867 391.988 333.975 392.029L337.875 393.516C337.97 393.552 338.05 393.62 338.1 393.709C338.15 393.798 338.168 393.901 338.149 394.002C338.131 394.102 338.078 394.193 337.999 394.258C337.921 394.323 337.822 394.358 337.72 394.358H337.719Z" fill="#0A0A0A"/>
<path d="M316.074 351.463L206.074 351.389L164.46 249.877L102.382 275.977L154.3 396.456L154.807 397.656C157.347 403.512 161.626 408.446 167.063 411.789C172.501 415.132 178.835 416.723 185.207 416.347L317.735 408.518L316.074 351.463Z" fill="#367CFF"/>
<path d="M183.386 416.9C177.219 416.889 171.189 415.082 166.033 411.7C160.876 408.317 156.817 403.506 154.351 397.854L153.843 396.654L109.6 294L110.518 293.6L155.268 397.461C157.779 403.214 161.991 408.059 167.339 411.346C172.686 414.634 178.911 416.204 185.178 415.848L317.221 408.048L315.585 351.965L205.737 351.891L173.737 273.838L174.663 273.46L206.406 350.891L316.556 350.966L318.249 408.989L317.764 409.018L185.24 416.845C184.621 416.882 184 416.9 183.386 416.9Z" fill="#0C0C0C"/>
<path d="M61.0353 424.943L18.8489 842.289L20.8387 842.49L63.0252 425.144L61.0353 424.943Z" fill="#494949"/>
<path d="M235.334 424.943L193.147 842.289L195.137 842.49L237.323 425.144L235.334 424.943Z" fill="#494949"/>
<path d="M598.769 424.937L596.779 425.138L638.936 842.487L640.926 842.286L598.769 424.937Z" fill="#494949"/>
<path d="M636.784 416.845H25.781C21.2556 416.845 17.587 420.513 17.587 425.038C17.587 429.564 21.2556 433.232 25.781 433.232H636.784C641.309 433.232 644.978 429.564 644.978 425.038C644.978 420.513 641.309 416.845 636.784 416.845Z" fill="#292A2E"/>
<path opacity="0.8" d="M636.784 416.845H25.781C21.2556 416.845 17.587 420.513 17.587 425.038C17.587 429.564 21.2556 433.232 25.781 433.232H636.784C641.309 433.232 644.978 429.564 644.978 425.038C644.978 420.513 641.309 416.845 636.784 416.845Z" fill="white"/>
<path d="M636.785 434.232H25.785C24.5696 434.245 23.3638 434.016 22.2373 433.56C21.1107 433.104 20.0859 432.428 19.222 431.573C18.3581 430.718 17.6722 429.701 17.2042 428.579C16.7361 427.457 16.4951 426.254 16.4951 425.038C16.4951 423.823 16.7361 422.62 17.2042 421.498C17.6722 420.376 18.3581 419.358 19.222 418.504C20.0859 417.649 21.1107 416.973 22.2373 416.517C23.3638 416.061 24.5696 415.832 25.785 415.845H636.785C638 415.832 639.206 416.061 640.333 416.517C641.459 416.973 642.484 417.649 643.348 418.504C644.212 419.358 644.898 420.376 645.366 421.498C645.834 422.62 646.075 423.823 646.075 425.038C646.075 426.254 645.834 427.457 645.366 428.579C644.898 429.701 644.212 430.718 643.348 431.573C642.484 432.428 641.459 433.104 640.333 433.56C639.206 434.016 638 434.245 636.785 434.232ZM25.785 417.845C24.8332 417.834 23.8886 418.012 23.006 418.368C22.1234 418.724 21.3204 419.253 20.6433 419.922C19.9663 420.591 19.4288 421.388 19.0619 422.266C18.6951 423.144 18.5062 424.087 18.5062 425.038C18.5062 425.99 18.6951 426.933 19.0619 427.811C19.4288 428.689 19.9663 429.486 20.6433 430.155C21.3204 430.824 22.1234 431.352 23.006 431.709C23.8886 432.065 24.8332 432.243 25.785 432.232H636.785C637.737 432.243 638.681 432.065 639.564 431.709C640.447 431.352 641.25 430.824 641.927 430.155C642.604 429.486 643.141 428.689 643.508 427.811C643.875 426.933 644.064 425.99 644.064 425.038C644.064 424.087 643.875 423.144 643.508 422.266C643.141 421.388 642.604 420.591 641.927 419.922C641.25 419.253 640.447 418.724 639.564 418.368C638.681 418.012 637.737 417.834 636.785 417.845H25.785Z" fill="#292A2E"/>
<path d="M636.784 416.845H206.742C202.217 416.845 198.548 420.513 198.548 425.038C198.548 429.564 202.217 433.232 206.742 433.232H636.784C641.31 433.232 644.978 429.564 644.978 425.038C644.978 420.513 641.31 416.845 636.784 416.845Z" fill="white"/>
<path d="M636.785 434.232H206.742C204.32 434.207 202.006 433.227 200.303 431.506C198.599 429.784 197.644 427.46 197.644 425.038C197.644 422.617 198.599 420.293 200.303 418.571C202.006 416.85 204.32 415.87 206.742 415.845H636.785C638 415.832 639.206 416.061 640.333 416.517C641.459 416.973 642.484 417.649 643.348 418.504C644.212 419.358 644.898 420.376 645.366 421.498C645.834 422.62 646.075 423.823 646.075 425.038C646.075 426.254 645.834 427.457 645.366 428.579C644.898 429.701 644.212 430.718 643.348 431.573C642.484 432.428 641.459 433.104 640.333 433.56C639.206 434.016 638 434.245 636.785 434.232ZM206.742 417.845C204.849 417.867 203.041 418.635 201.71 419.982C200.379 421.328 199.633 423.145 199.633 425.038C199.633 426.932 200.379 428.749 201.71 430.095C203.041 431.442 204.849 432.21 206.742 432.232H636.785C637.737 432.243 638.681 432.065 639.564 431.709C640.447 431.352 641.25 430.824 641.927 430.155C642.604 429.486 643.141 428.689 643.508 427.811C643.875 426.933 644.064 425.99 644.064 425.038C644.064 424.087 643.875 423.144 643.508 422.266C643.141 421.388 642.604 420.591 641.927 419.922C641.25 419.253 640.447 418.724 639.564 418.368C638.681 418.012 637.737 417.834 636.785 417.845H206.742Z" fill="#292A2E"/>
<path d="M653.265 709.44C653.134 709.44 653.003 709.415 652.882 709.364C652.761 709.314 652.651 709.24 652.558 709.147C651.149 707.739 648.852 681.889 642.666 604.924C640.135 573.432 637.744 543.686 635.999 525.609C635.875 524.318 635.374 524.168 635.21 524.119C632.821 523.398 625.558 529.125 621.503 534.141C621.336 534.347 621.094 534.479 620.83 534.507C620.566 534.535 620.302 534.457 620.096 534.29C619.89 534.123 619.758 533.881 619.73 533.617C619.702 533.354 619.78 533.089 619.947 532.883C622.629 529.567 631.369 520.874 635.785 522.203C636.675 522.471 637.785 523.245 637.99 525.417C639.737 543.51 642.128 573.264 644.66 604.764C648.419 651.534 652.677 704.52 654.077 707.857C654.184 708.006 654.248 708.183 654.262 708.366C654.275 708.549 654.238 708.733 654.154 708.897C654.07 709.06 653.943 709.197 653.786 709.293C653.629 709.389 653.449 709.44 653.265 709.44V709.44Z" fill="#494949"/>
<path d="M633.43 558.781C650.024 545.479 655.523 524.776 645.714 512.539C635.905 500.301 614.501 501.163 597.907 514.465C581.313 527.766 575.813 548.469 585.623 560.707C595.432 572.944 616.836 572.082 633.43 558.781Z" fill="#0CBC8B"/>
<path opacity="0.2" d="M633.43 558.781C650.024 545.479 655.523 524.776 645.714 512.539C635.905 500.301 614.501 501.163 597.907 514.465C581.313 527.766 575.813 548.469 585.623 560.707C595.432 572.944 616.836 572.082 633.43 558.781Z" fill="white"/>
<path d="M590.275 563.819C590.18 563.819 590.087 563.792 590.007 563.741C589.927 563.69 589.863 563.618 589.822 563.532C589.782 563.446 589.767 563.35 589.779 563.256C589.791 563.162 589.829 563.073 589.89 563L637.181 505.971C637.266 505.869 637.387 505.805 637.52 505.792C637.652 505.78 637.783 505.821 637.885 505.906C637.987 505.99 638.052 506.112 638.064 506.244C638.076 506.376 638.036 506.508 637.951 506.61L590.66 563.639C590.613 563.695 590.554 563.741 590.487 563.772C590.421 563.803 590.348 563.819 590.275 563.819V563.819Z" fill="white"/>
<path d="M663.579 697.215C663.419 697.215 663.262 697.177 663.12 697.104C662.979 697.03 662.856 696.924 662.764 696.794C662.672 696.664 662.612 696.514 662.589 696.356C662.567 696.198 662.583 696.037 662.635 695.886L680.4 644.8C680.923 643.299 681.814 641.953 682.992 640.886C684.17 639.819 685.597 639.064 687.142 638.691C688.687 638.319 690.301 638.339 691.836 638.752C693.371 639.164 694.778 639.955 695.928 641.052L705.32 650.023C705.512 650.206 705.623 650.458 705.629 650.724C705.635 650.989 705.536 651.246 705.352 651.438C705.169 651.629 704.917 651.741 704.652 651.747C704.387 651.753 704.13 651.653 703.938 651.47L694.547 642.498C693.639 641.632 692.528 641.007 691.316 640.682C690.104 640.356 688.83 640.34 687.611 640.634C686.391 640.929 685.264 641.525 684.334 642.367C683.405 643.21 682.701 644.272 682.288 645.457L664.525 696.544C664.457 696.74 664.329 696.91 664.159 697.031C663.99 697.151 663.787 697.215 663.579 697.215Z" fill="#494949"/>
<path d="M731.556 678.307C743.854 668.573 743.123 647.164 729.924 630.489C716.725 613.814 696.056 608.187 683.758 617.921C671.461 627.655 672.192 649.064 685.391 665.739C698.59 682.414 719.259 688.041 731.556 678.307Z" fill="#0CBC8B"/>
<path d="M645.2 706.182C644.975 706.182 644.757 706.106 644.581 705.967C644.405 705.828 644.28 705.633 644.228 705.415L614.412 580.77C614.208 579.921 613.774 579.144 613.157 578.525C612.54 577.907 611.765 577.47 610.916 577.263C610.068 577.057 609.178 577.088 608.346 577.354C607.514 577.619 606.772 578.11 606.2 578.77L597.01 589.39C596.924 589.491 596.82 589.574 596.702 589.634C596.584 589.694 596.456 589.73 596.324 589.74C596.192 589.75 596.06 589.734 595.934 589.693C595.809 589.651 595.693 589.585 595.593 589.499C595.493 589.412 595.411 589.307 595.352 589.189C595.294 589.07 595.259 588.942 595.25 588.81C595.241 588.678 595.258 588.546 595.301 588.421C595.344 588.296 595.41 588.18 595.498 588.081L604.687 577.462C605.5 576.523 606.555 575.826 607.739 575.449C608.922 575.071 610.186 575.027 611.392 575.321C612.599 575.616 613.701 576.237 614.577 577.117C615.453 577.997 616.069 579.102 616.358 580.31L646.168 704.954C646.228 705.211 646.184 705.482 646.045 705.707C645.907 705.932 645.685 706.092 645.428 706.154C645.353 706.172 645.277 706.182 645.2 706.182V706.182Z" fill="#494949"/>
<path d="M634.2 617.08C637.824 596.124 628.233 576.97 612.779 574.297C597.324 571.625 581.858 586.446 578.234 607.402C574.611 628.358 584.201 647.512 599.656 650.185C615.11 652.857 630.576 638.036 634.2 617.08Z" fill="#0CBC8B"/>
<path d="M653.266 709.44C653.225 709.44 653.184 709.438 653.143 709.433C653.013 709.417 652.887 709.376 652.772 709.311C652.658 709.246 652.557 709.16 652.476 709.056C652.395 708.952 652.336 708.834 652.301 708.707C652.266 708.581 652.256 708.448 652.272 708.318L671.308 553.761C671.515 552.077 672.205 550.489 673.293 549.188C674.381 547.887 675.822 546.928 677.443 546.425C679.063 545.923 680.794 545.9 682.427 546.358C684.061 546.816 685.527 547.737 686.65 549.008L708.408 573.651C708.584 573.85 708.673 574.11 708.656 574.375C708.64 574.64 708.519 574.887 708.32 575.063C708.121 575.239 707.861 575.328 707.596 575.311C707.331 575.295 707.084 575.174 706.908 574.975L685.15 550.332C684.282 549.349 683.149 548.638 681.887 548.284C680.624 547.929 679.286 547.947 678.034 548.335C676.782 548.723 675.668 549.465 674.827 550.471C673.986 551.476 673.453 552.704 673.293 554.005L654.258 708.562C654.228 708.804 654.111 709.027 653.928 709.189C653.745 709.351 653.51 709.44 653.266 709.44V709.44Z" fill="#494949"/>
<path d="M730.724 587.346C738.316 573.622 729.384 554.151 710.774 543.858C692.164 533.564 670.924 536.345 663.333 550.069C655.741 563.793 664.673 583.263 683.283 593.557C701.893 603.851 723.133 601.07 730.724 587.346Z" fill="#0CBC8B"/>
<path opacity="0.2" d="M731.556 678.307C743.854 668.573 743.123 647.164 729.924 630.489C716.725 613.814 696.056 608.187 683.758 617.921C671.461 627.655 672.192 649.064 685.391 665.739C698.59 682.414 719.259 688.041 731.556 678.307Z" fill="white"/>
<path opacity="0.5" d="M634.2 617.08C637.824 596.124 628.233 576.97 612.779 574.297C597.324 571.625 581.858 586.446 578.234 607.402C574.611 628.358 584.201 647.512 599.656 650.185C615.11 652.857 630.576 638.036 634.2 617.08Z" fill="white"/>
<path opacity="0.5" d="M730.724 587.346C738.316 573.622 729.384 554.151 710.774 543.858C692.164 533.564 670.924 536.345 663.333 550.069C655.741 563.793 664.673 583.263 683.283 593.557C701.893 603.851 723.133 601.07 730.724 587.346Z" fill="white"/>
<path d="M677.613 840.582H628.917L620.847 684.778H685.682L677.613 840.582Z" fill="#292A2E"/>
<path opacity="0.3" d="M677.613 840.582H628.917L620.847 684.778H685.682L677.613 840.582Z" fill="white"/>
<path d="M731.558 678.8C731.482 678.8 731.408 678.783 731.34 678.75C731.272 678.717 731.213 678.669 731.166 678.61L683.366 618.224C683.284 618.12 683.246 617.988 683.261 617.856C683.276 617.724 683.343 617.604 683.447 617.522C683.551 617.439 683.684 617.402 683.816 617.417C683.947 617.432 684.068 617.499 684.15 617.603L731.95 677.989C732.008 678.063 732.045 678.151 732.055 678.245C732.066 678.338 732.05 678.433 732.009 678.518C731.968 678.602 731.904 678.674 731.824 678.724C731.744 678.774 731.652 678.8 731.558 678.8V678.8Z" fill="white"/>
<path d="M727.545 592.184C727.438 592.183 727.335 592.148 727.25 592.084L666.084 547.422C665.977 547.344 665.905 547.226 665.885 547.095C665.864 546.964 665.897 546.83 665.975 546.723C666.053 546.616 666.171 546.544 666.302 546.524C666.433 546.503 666.567 546.536 666.674 546.614L727.84 591.277C727.924 591.34 727.986 591.428 728.017 591.528C728.048 591.628 728.047 591.736 728.014 591.835C727.981 591.935 727.917 592.021 727.832 592.083C727.747 592.144 727.645 592.177 727.54 592.177L727.545 592.184Z" fill="white"/>
<path d="M597.17 649.533C597.126 649.533 597.083 649.527 597.041 649.515C596.913 649.481 596.804 649.397 596.738 649.283C596.671 649.168 596.653 649.032 596.687 648.904L616.158 575.951C616.195 575.826 616.279 575.721 616.393 575.657C616.506 575.593 616.64 575.576 616.766 575.61C616.892 575.643 616.999 575.725 617.066 575.836C617.133 575.948 617.154 576.081 617.124 576.208L597.653 649.161C597.625 649.268 597.562 649.362 597.475 649.429C597.387 649.496 597.28 649.533 597.17 649.533V649.533Z" fill="white"/>
<path d="M701.122 841.986H0.7C0.514348 841.986 0.336301 841.912 0.205025 841.781C0.0737498 841.65 0 841.472 0 841.286C0 841.1 0.0737498 840.922 0.205025 840.791C0.336301 840.66 0.514348 840.586 0.7 840.586H701.12C701.306 840.586 701.484 840.66 701.615 840.791C701.746 840.922 701.82 841.1 701.82 841.286C701.82 841.472 701.746 841.65 701.615 841.781C701.484 841.912 701.306 841.986 701.12 841.986H701.122Z" fill="#292A2E"/>
<g opacity="0.65">
<path d="M701.122 841.986H0.7C0.514348 841.986 0.336301 841.912 0.205025 841.781C0.0737498 841.65 0 841.472 0 841.286C0 841.1 0.0737498 840.922 0.205025 840.791C0.336301 840.66 0.514348 840.586 0.7 840.586H701.12C701.306 840.586 701.484 840.66 701.615 840.791C701.746 840.922 701.82 841.1 701.82 841.286C701.82 841.472 701.746 841.65 701.615 841.781C701.484 841.912 701.306 841.986 701.12 841.986H701.122Z" fill="#292A2E"/>
</g>
</svg>
