<svg width="110" height="20" viewBox="0 0 110 20" fill="none" xmlns="http://www.w3.org/2000/svg">
<path d="M1.275 19V5.75H3.675V19H1.275ZM2.475 3.2C2.00833 3.2 1.61667 3.05 1.3 2.75C1 2.45 0.85 2.08333 0.85 1.65C0.85 1.2 1 0.825 1.3 0.524999C1.61667 0.224999 2.00833 0.0749993 2.475 0.0749993C2.94167 0.0749993 3.325 0.224999 3.625 0.524999C3.94167 0.808332 4.1 1.16667 4.1 1.6C4.1 2.05 3.95 2.43333 3.65 2.75C3.35 3.05 2.95833 3.2 2.475 3.2ZM15.3324 5.625C16.4158 5.625 17.3658 5.83333 18.1824 6.25C19.0158 6.66667 19.6658 7.3 20.1324 8.15C20.5991 9 20.8324 10.075 20.8324 11.375V19H18.4324V11.65C18.4324 10.3667 18.1158 9.4 17.4824 8.75C16.8658 8.1 15.9908 7.775 14.8574 7.775C14.0074 7.775 13.2658 7.94167 12.6324 8.275C11.9991 8.60833 11.5074 9.1 11.1574 9.75C10.8241 10.4 10.6574 11.2083 10.6574 12.175V19H8.25742V5.75H10.5574V9.325L10.1824 8.375C10.6158 7.50833 11.2824 6.83333 12.1824 6.35C13.0824 5.86667 14.1324 5.625 15.3324 5.625ZM28.5049 19L22.7049 5.75H25.2049L30.3549 17.75H29.1549L34.4049 5.75H36.7549L30.9549 19H28.5049ZM44.5285 19.15C43.1118 19.15 41.8618 18.8583 40.7785 18.275C39.7118 17.6917 38.8785 16.8917 38.2785 15.875C37.6952 14.8583 37.4035 13.6917 37.4035 12.375C37.4035 11.0583 37.6868 9.89167 38.2535 8.875C38.8368 7.85833 39.6285 7.06667 40.6285 6.5C41.6452 5.91667 42.7868 5.625 44.0535 5.625C45.3368 5.625 46.4702 5.90833 47.4535 6.475C48.4368 7.04167 49.2035 7.84167 49.7535 8.875C50.3202 9.89167 50.6035 11.0833 50.6035 12.45C50.6035 12.55 50.5952 12.6667 50.5785 12.8C50.5785 12.9333 50.5702 13.0583 50.5535 13.175H39.2785V11.45H49.3035L48.3285 12.05C48.3452 11.2 48.1702 10.4417 47.8035 9.775C47.4368 9.10833 46.9285 8.59167 46.2785 8.225C45.6452 7.84167 44.9035 7.65 44.0535 7.65C43.2202 7.65 42.4785 7.84167 41.8285 8.225C41.1785 8.59167 40.6702 9.11667 40.3035 9.8C39.9368 10.4667 39.7535 11.2333 39.7535 12.1V12.5C39.7535 13.3833 39.9535 14.175 40.3535 14.875C40.7702 15.5583 41.3452 16.0917 42.0785 16.475C42.8118 16.8583 43.6535 17.05 44.6035 17.05C45.3868 17.05 46.0952 16.9167 46.7285 16.65C47.3785 16.3833 47.9452 15.9833 48.4285 15.45L49.7535 17C49.1535 17.7 48.4035 18.2333 47.5035 18.6C46.6202 18.9667 45.6285 19.15 44.5285 19.15ZM61.0111 5.625C62.0945 5.625 63.0445 5.83333 63.8611 6.25C64.6945 6.66667 65.3445 7.3 65.8111 8.15C66.2778 9 66.5111 10.075 66.5111 11.375V19H64.1111V11.65C64.1111 10.3667 63.7945 9.4 63.1611 8.75C62.5445 8.1 61.6695 7.775 60.5361 7.775C59.6861 7.775 58.9445 7.94167 58.3111 8.275C57.6778 8.60833 57.1861 9.1 56.8361 9.75C56.5028 10.4 56.3361 11.2083 56.3361 12.175V19H53.9361V5.75H56.2361V9.325L55.8611 8.375C56.2945 7.50833 56.9611 6.83333 57.8611 6.35C58.7611 5.86667 59.8111 5.625 61.0111 5.625ZM75.5027 19.15C74.1694 19.15 73.1361 18.7917 72.4027 18.075C71.6694 17.3583 71.3027 16.3333 71.3027 15V2.85H73.7027V14.9C73.7027 15.6167 73.8777 16.1667 74.2277 16.55C74.5944 16.9333 75.1111 17.125 75.7777 17.125C76.5277 17.125 77.1527 16.9167 77.6527 16.5L78.4027 18.225C78.0361 18.5417 77.5944 18.775 77.0777 18.925C76.5777 19.075 76.0527 19.15 75.5027 19.15ZM69.0527 7.725V5.75H77.5027V7.725H69.0527ZM86.5398 19.15C85.2065 19.15 84.0232 18.8583 82.9898 18.275C81.9565 17.6917 81.1398 16.8917 80.5398 15.875C79.9398 14.8417 79.6398 13.675 79.6398 12.375C79.6398 11.0583 79.9398 9.89167 80.5398 8.875C81.1398 7.85833 81.9565 7.06667 82.9898 6.5C84.0232 5.91667 85.2065 5.625 86.5398 5.625C87.8565 5.625 89.0315 5.91667 90.0648 6.5C91.1148 7.06667 91.9315 7.85833 92.5148 8.875C93.1148 9.875 93.4148 11.0417 93.4148 12.375C93.4148 13.6917 93.1148 14.8583 92.5148 15.875C91.9315 16.8917 91.1148 17.6917 90.0648 18.275C89.0315 18.8583 87.8565 19.15 86.5398 19.15ZM86.5398 17.05C87.3898 17.05 88.1482 16.8583 88.8148 16.475C89.4982 16.0917 90.0315 15.55 90.4148 14.85C90.7982 14.1333 90.9898 13.3083 90.9898 12.375C90.9898 11.425 90.7982 10.6083 90.4148 9.925C90.0315 9.225 89.4982 8.68333 88.8148 8.3C88.1482 7.91667 87.3898 7.725 86.5398 7.725C85.6898 7.725 84.9315 7.91667 84.2648 8.3C83.5982 8.68333 83.0648 9.225 82.6648 9.925C82.2648 10.6083 82.0648 11.425 82.0648 12.375C82.0648 13.3083 82.2648 14.1333 82.6648 14.85C83.0648 15.55 83.5982 16.0917 84.2648 16.475C84.9315 16.8583 85.6898 17.05 86.5398 17.05ZM96.734 19V5.75H99.034V9.35L98.809 8.45C99.1757 7.53333 99.7923 6.83333 100.659 6.35C101.526 5.86667 102.592 5.625 103.859 5.625V7.95C103.759 7.93333 103.659 7.925 103.559 7.925C103.476 7.925 103.392 7.925 103.309 7.925C102.026 7.925 101.009 8.30833 100.259 9.075C99.509 9.84167 99.134 10.95 99.134 12.4V19H96.734ZM106.817 19V5.75H109.217V19H106.817ZM108.017 3.2C107.55 3.2 107.159 3.05 106.842 2.75C106.542 2.45 106.392 2.08333 106.392 1.65C106.392 1.2 106.542 0.825 106.842 0.524999C107.159 0.224999 107.55 0.0749993 108.017 0.0749993C108.484 0.0749993 108.867 0.224999 109.167 0.524999C109.484 0.808332 109.642 1.16667 109.642 1.6C109.642 2.05 109.492 2.43333 109.192 2.75C108.892 3.05 108.5 3.2 108.017 3.2Z" fill="black"/>
</svg>
